<svg id="Capa_1" data-name="Capa 1" xmlns="http://www.w3.org/2000/svg" viewBox="0 0 595.28 595.28"><defs><style>.cls-1{fill:#0d262e;}.cls-2{fill:#d6d193;}</style></defs><title>Recuros AKM</title><rect class="cls-1" x="-8.68" y="-8.68" width="612.65" height="612.65"/><path class="cls-2" d="M299.17,152.16H287.64l-27.25,74.42h9.23l7.33-20.65h32.6l7.23,20.65h9.64Zm-19.6,46.12,13.63-38.57,13.63,38.57H279.57Z"/><polygon class="cls-2" points="224.33 312.67 224.32 312.67 224.32 312.67 255.35 283.95 244.03 283.95 206.61 318.64 206.61 283.95 197.7 283.95 197.7 358.37 206.61 358.37 206.61 329.02 218.04 318.43 246.13 358.37 246.13 358.37 256.4 358.37 256.4 358.37 233.48 325.7 224.33 312.67"/><polygon class="cls-2" points="382.69 284.26 359.84 347.68 336.99 284.26 322.84 284.26 322.84 358.69 331.75 358.69 331.75 293.7 355.44 358.69 364.24 358.69 387.94 293.7 387.94 358.69 396.85 358.69 396.85 284.26 382.69 284.26"/><path class="cls-2" d="M218.64,436.61L216,429.07H204.09l-2.68,7.54H198l10-27.19h4.21l10,27.19h-3.52Zm-13.59-10.34h10l-5-14.09Z"/><path class="cls-2" d="M235,417.09V420h-2.07a5.11,5.11,0,0,0-3.81,1.24q-1.21,1.24-1.17,4.31v11.1h-3V417.09h2.91v3.64a5.48,5.48,0,0,1,2.13-2.66,6.48,6.48,0,0,1,3.66-1H235Z"/><path class="cls-2" d="M248,436.15a7.33,7.33,0,0,1-3.73.92,7.56,7.56,0,0,1-4.38-1.3,8.44,8.44,0,0,1-2.93-3.62,13.92,13.92,0,0,1,0-10.53,8.44,8.44,0,0,1,2.93-3.62,7.55,7.55,0,0,1,4.38-1.3,7.33,7.33,0,0,1,3.73.92,6.78,6.78,0,0,1,2.55,2.64v-3.18h3v26h-3v-9.61A6.78,6.78,0,0,1,248,436.15Zm1.09-3.71a10.83,10.83,0,0,0,0-11.1,5.21,5.21,0,0,0-8.42,0,10.83,10.83,0,0,0,0,11.1A5.21,5.21,0,0,0,249,432.44Z"/><path class="cls-2" d="M259.87,435.37a6.23,6.23,0,0,1-1.7-4.61V417.09h3v13.17q0,4.25,4.29,4.25a5,5,0,0,0,2.66-.75,5.28,5.28,0,0,0,1.91-2.11,6.83,6.83,0,0,0,.71-3.2V417.09h3v19.53h-3v-3.29a6.17,6.17,0,0,1-2.26,2.72,6.92,6.92,0,0,1-3.94,1A6.28,6.28,0,0,1,259.87,435.37Z"/><path class="cls-2" d="M281.52,409.43v3.83h-3v-3.83h3Zm0,7.66v19.53h-3V417.09h3Z"/><path class="cls-2" d="M290.33,419.54v12.14a3.69,3.69,0,0,0,.36,2,1.91,1.91,0,0,0,1.59.5h2.34v2.45h-3.1q-2.41,0-3.29-1.11a5.9,5.9,0,0,1-.88-3.64V419.54h-3.06v-2.45h3.06v-5.21h3v5.21h4.29v2.45h-4.29Z"/><path class="cls-2" d="M297.53,421.64A8.8,8.8,0,0,1,300.8,418a9.2,9.2,0,0,1,5-1.32,8.79,8.79,0,0,1,5,1.44A9.06,9.06,0,0,1,314,422a11.57,11.57,0,0,1,1,5.42H299.59a8.19,8.19,0,0,0,1.76,5.19,5.66,5.66,0,0,0,4.56,1.93,5.3,5.3,0,0,0,3.54-1.15,6.5,6.5,0,0,0,2-3h3.18a9.15,9.15,0,0,1-3.12,4.84,8.64,8.64,0,0,1-5.57,1.82,9.39,9.39,0,0,1-5-1.32,9,9,0,0,1-3.35-3.64A12.33,12.33,0,0,1,297.53,421.64Zm12.23-.86a5.35,5.35,0,0,0-4-1.59,5.46,5.46,0,0,0-4.06,1.59,7.59,7.59,0,0,0-2,4.31h12.06A7.87,7.87,0,0,0,309.76,420.78Z"/><path class="cls-2" d="M332.35,435.27a8.45,8.45,0,0,1-5.53,1.8,9.22,9.22,0,0,1-4.94-1.32,8.85,8.85,0,0,1-3.31-3.64,11.53,11.53,0,0,1-1.17-5.27,11.33,11.33,0,0,1,1.17-5.21,8.93,8.93,0,0,1,3.29-3.62,9.12,9.12,0,0,1,4.92-1.32,8.52,8.52,0,0,1,5.57,1.8,8.93,8.93,0,0,1,3,5.05h-3.18a5.94,5.94,0,0,0-1.88-3.25,5.28,5.28,0,0,0-3.48-1.11,5.4,5.4,0,0,0-4.52,2.13,8.77,8.77,0,0,0-1.65,5.53,8.86,8.86,0,0,0,1.67,5.59,5.44,5.44,0,0,0,4.54,2.14q4.17,0,5.32-4.37h3.18A8.93,8.93,0,0,1,332.35,435.27Z"/><path class="cls-2" d="M342.67,419.54v12.14a3.69,3.69,0,0,0,.36,2,1.91,1.91,0,0,0,1.59.5H347v2.45h-3.1q-2.41,0-3.29-1.11a5.9,5.9,0,0,1-.88-3.64V419.54h-3.06v-2.45h3.06v-5.21h3v5.21H347v2.45h-4.29Z"/><path class="cls-2" d="M351.84,435.37a6.23,6.23,0,0,1-1.7-4.61V417.09h3v13.17q0,4.25,4.29,4.25a5,5,0,0,0,2.66-.75,5.28,5.28,0,0,0,1.91-2.11,6.83,6.83,0,0,0,.71-3.2V417.09h3v19.53h-3v-3.29a6.17,6.17,0,0,1-2.26,2.72,6.92,6.92,0,0,1-3.94,1A6.28,6.28,0,0,1,351.84,435.37Z"/><path class="cls-2" d="M380.54,417.09V420h-2.07a5.11,5.11,0,0,0-3.81,1.24q-1.21,1.24-1.17,4.31v11.1h-3V417.09h2.91v3.64a5.48,5.48,0,0,1,2.13-2.66,6.48,6.48,0,0,1,3.66-1h1.34Z"/><path class="cls-2" d="M383.32,435.48a5.32,5.32,0,0,1-1.93-4.35,4.69,4.69,0,0,1,.94-3.06,6.41,6.41,0,0,1,2.53-1.82,37.92,37.92,0,0,1,4.54-1.47q0.34-.08,2.07-0.56a7,7,0,0,0,2.43-1.05,1.73,1.73,0,0,0,.71-1.38,2.31,2.31,0,0,0-1.17-2,5.83,5.83,0,0,0-3.27-.79,6.1,6.1,0,0,0-3.56.94,3.56,3.56,0,0,0-1.49,2.78H382a6.49,6.49,0,0,1,2.53-4.38,8.92,8.92,0,0,1,5.63-1.67,8.68,8.68,0,0,1,5.47,1.53,5.18,5.18,0,0,1,2,4.33v14.05h-2.87V433a5.59,5.59,0,0,1-2.24,2.95A8.39,8.39,0,0,1,383.32,435.48Zm8.67-1.65a5.9,5.9,0,0,0,2-2.49,8.15,8.15,0,0,0,.69-3.35v-3.87a3,3,0,0,1-1.45,1.44,17.55,17.55,0,0,1-3.06,1.13,14.81,14.81,0,0,0-4.25,1.72,3.08,3.08,0,0,0-1.34,2.72,3.25,3.25,0,0,0,1.19,2.68,4.73,4.73,0,0,0,3.06,1A5.34,5.34,0,0,0,392,433.84Z"/></svg>