<svg id="Capa_1" data-name="Capa 1" xmlns="http://www.w3.org/2000/svg" viewBox="130 175 335 215"><defs><style>.cls-2{fill:#0d262e;}</style></defs><title>Recuros AKM</title><path class="cls-2" d="M158,419.1L156.23,414h-8.07l-1.82,5.11h-2.28l6.74-18.42h2.85l6.74,18.42H158Zm-9.21-7h6.74l-3.37-9.55Z"/><path class="cls-2" d="M169.07,405.87v1.95h-1.4a3.46,3.46,0,0,0-2.58.84,4.07,4.07,0,0,0-.79,2.92v7.52h-2V405.87h2v2.46a3.71,3.71,0,0,1,1.44-1.8,4.39,4.39,0,0,1,2.48-.66h0.91Z"/><path class="cls-2" d="M177.88,418.79a5,5,0,0,1-2.53.62,5.12,5.12,0,0,1-3-.88,5.71,5.71,0,0,1-2-2.45,9.43,9.43,0,0,1,0-7.13,5.72,5.72,0,0,1,2-2.45,5.12,5.12,0,0,1,3-.88,5,5,0,0,1,2.53.62A4.59,4.59,0,0,1,179.6,408v-2.15h2v17.64h-2V417A4.59,4.59,0,0,1,177.88,418.79Zm0.74-2.52a7.34,7.34,0,0,0,0-7.52,3.53,3.53,0,0,0-5.71,0,7.34,7.34,0,0,0,0,7.52A3.53,3.53,0,0,0,178.62,416.27Z"/><path class="cls-2" d="M185.94,418.26a4.22,4.22,0,0,1-1.15-3.13v-9.26h2v8.92q0,2.88,2.91,2.88a3.36,3.36,0,0,0,1.8-.51,3.58,3.58,0,0,0,1.3-1.43,4.63,4.63,0,0,0,.48-2.17v-7.7h2V419.1h-2v-2.23a4.19,4.19,0,0,1-1.53,1.84,4.69,4.69,0,0,1-2.67.7A4.26,4.26,0,0,1,185.94,418.26Z"/><path class="cls-2" d="M200.61,400.68v2.59h-2v-2.59h2Zm0,5.19V419.1h-2V405.87h2Z"/><path class="cls-2" d="M206.58,407.53v8.22a2.5,2.5,0,0,0,.25,1.35,1.3,1.3,0,0,0,1.08.34h1.58v1.66h-2.1a2.72,2.72,0,0,1-2.23-.75,4,4,0,0,1-.6-2.46v-8.35h-2.08v-1.66h2.08v-3.53h2v3.53h2.91v1.66h-2.91Z"/><path class="cls-2" d="M211.46,409a6,6,0,0,1,2.22-2.45,6.23,6.23,0,0,1,3.36-.9,6,6,0,0,1,3.4,1,6.14,6.14,0,0,1,2.21,2.65,7.84,7.84,0,0,1,.65,3.67H212.86a5.56,5.56,0,0,0,1.19,3.51,3.84,3.84,0,0,0,3.09,1.31,3.59,3.59,0,0,0,2.4-.78,4.4,4.4,0,0,0,1.34-2H223a6.2,6.2,0,0,1-2.11,3.28,5.86,5.86,0,0,1-3.77,1.23,6.36,6.36,0,0,1-3.39-.9,6.06,6.06,0,0,1-2.27-2.46A8.35,8.35,0,0,1,211.46,409Zm8.29-.58A3.62,3.62,0,0,0,217,407.3a3.7,3.7,0,0,0-2.75,1.08,5.14,5.14,0,0,0-1.35,2.92h8.17A5.32,5.32,0,0,0,219.74,408.37Z"/><path class="cls-2" d="M235,418.19a5.72,5.72,0,0,1-3.75,1.22,6.25,6.25,0,0,1-3.35-.9,6,6,0,0,1-2.24-2.46,7.81,7.81,0,0,1-.79-3.57,7.68,7.68,0,0,1,.79-3.53,6.06,6.06,0,0,1,2.23-2.45,6.18,6.18,0,0,1,3.33-.9,5.77,5.77,0,0,1,3.77,1.22,6,6,0,0,1,2,3.42h-2.15a4,4,0,0,0-1.27-2.21,3.58,3.58,0,0,0-2.36-.75,3.66,3.66,0,0,0-3.06,1.44,6.89,6.89,0,0,0,0,7.54,3.68,3.68,0,0,0,3.07,1.45,3.48,3.48,0,0,0,3.61-3h2.15A6,6,0,0,1,235,418.19Z"/><path class="cls-2" d="M242,407.53v8.22a2.5,2.5,0,0,0,.25,1.35,1.3,1.3,0,0,0,1.08.34h1.58v1.66h-2.1a2.72,2.72,0,0,1-2.23-.75,4,4,0,0,1-.6-2.46v-8.35h-2.08v-1.66H240v-3.53h2v3.53h2.91v1.66H242Z"/><path class="cls-2" d="M248.25,418.26a4.22,4.22,0,0,1-1.15-3.13v-9.26h2v8.92q0,2.88,2.91,2.88a3.36,3.36,0,0,0,1.8-.51,3.58,3.58,0,0,0,1.3-1.43,4.63,4.63,0,0,0,.48-2.17v-7.7h2V419.1h-2v-2.23a4.19,4.19,0,0,1-1.53,1.84,4.69,4.69,0,0,1-2.67.7A4.26,4.26,0,0,1,248.25,418.26Z"/><path class="cls-2" d="M267.69,405.87v1.95h-1.4a3.46,3.46,0,0,0-2.58.84,4.07,4.07,0,0,0-.79,2.92v7.52h-2V405.87h2v2.46a3.71,3.71,0,0,1,1.44-1.8,4.39,4.39,0,0,1,2.48-.66h0.91Z"/><path class="cls-2" d="M269.57,418.33a3.6,3.6,0,0,1-1.31-2.94,3.18,3.18,0,0,1,.64-2.08,4.33,4.33,0,0,1,1.71-1.23,25.8,25.8,0,0,1,3.07-1l1.4-.38a4.76,4.76,0,0,0,1.65-.71,1.17,1.17,0,0,0,.48-0.93,1.57,1.57,0,0,0-.79-1.34,4,4,0,0,0-2.22-.53,4.13,4.13,0,0,0-2.41.64,2.41,2.41,0,0,0-1,1.88h-2.1a4.4,4.4,0,0,1,1.71-3,6,6,0,0,1,3.81-1.13,5.88,5.88,0,0,1,3.71,1,3.51,3.51,0,0,1,1.32,2.93v9.52h-1.95v-2.46a3.78,3.78,0,0,1-1.52,2A5.68,5.68,0,0,1,269.57,418.33Zm5.88-1.12a4,4,0,0,0,1.38-1.69,5.52,5.52,0,0,0,.47-2.27v-2.62a2,2,0,0,1-1,1,11.8,11.8,0,0,1-2.08.76,10,10,0,0,0-2.88,1.17,2.09,2.09,0,0,0-.91,1.84,2.2,2.2,0,0,0,.8,1.82,3.2,3.2,0,0,0,2.08.65A3.61,3.61,0,0,0,275.45,417.22Z"/><path class="cls-2" d="M180.44,238.19L175,222.79h-24.3l-5.47,15.39H138.4l20.32-55.48h8.59l20.32,55.48h-7.19Zm-27.74-21.1H173l-10.16-28.75Z"/><path class="cls-2" d="M211.77,198.34v5.86h-4.22q-5.31,0-7.77,2.54t-2.38,8.79v22.66H191.3V198.34h5.94v7.42a11.18,11.18,0,0,1,4.34-5.43,13.23,13.23,0,0,1,7.46-2h2.73Z"/><path class="cls-2" d="M236.35,237.25a15,15,0,0,1-7.62,1.88,15.42,15.42,0,0,1-8.95-2.66,17.22,17.22,0,0,1-6-7.38,28.41,28.41,0,0,1,0-21.49,17.23,17.23,0,0,1,6-7.38,15.42,15.42,0,0,1,8.95-2.66,15,15,0,0,1,7.62,1.88,13.82,13.82,0,0,1,5.2,5.39v-6.48h6.09v53.13h-6.09V231.86A13.83,13.83,0,0,1,236.35,237.25Zm2.23-7.58q3.12-4.38,3.13-11.33T238.57,207a10.63,10.63,0,0,0-17.19,0q-3.13,4.38-3.13,11.33t3.13,11.33A10.63,10.63,0,0,0,238.57,229.67Z"/><path class="cls-2" d="M258.69,235.65q-3.48-3.48-3.48-9.42V198.34h6.09v26.88q0,8.67,8.75,8.67a10.12,10.12,0,0,0,5.43-1.52,10.79,10.79,0,0,0,3.91-4.3,13.94,13.94,0,0,0,1.45-6.52V198.34h6.09v39.85h-6.09v-6.72a12.59,12.59,0,0,1-4.61,5.55,14.11,14.11,0,0,1-8,2.11Q262.17,239.12,258.69,235.65Z"/><path class="cls-2" d="M294.75,207.64a18,18,0,0,1,6.68-7.38,18.77,18.77,0,0,1,10.12-2.7,18,18,0,0,1,10.24,2.93,18.48,18.48,0,0,1,6.64,8,23.61,23.61,0,0,1,2,11.06H299q0.24,6.64,3.59,10.59a11.56,11.56,0,0,0,9.3,3.95,10.82,10.82,0,0,0,7.23-2.34,13.27,13.27,0,0,0,4-6.17h6.49a18.68,18.68,0,0,1-6.37,9.88,17.65,17.65,0,0,1-11.37,3.71,19.17,19.17,0,0,1-10.2-2.7,18.26,18.26,0,0,1-6.84-7.42A25.15,25.15,0,0,1,294.75,207.64Zm25-1.76a10.91,10.91,0,0,0-8.17-3.24,11.14,11.14,0,0,0-8.28,3.24,15.48,15.48,0,0,0-4.06,8.79h24.61A16,16,0,0,0,319.72,205.88Z"/><path class="cls-2" d="M337.92,235.49a13.74,13.74,0,0,1-5.2-10.2h6.33q0.47,4.69,3.59,6.84a13.9,13.9,0,0,0,8,2.15q4.61,0,6.88-2a6.54,6.54,0,0,0,2.27-5.08,5.48,5.48,0,0,0-1-3.48,7.21,7.21,0,0,0-3-2.11,49,49,0,0,0-6.17-1.84q-5.55-1.41-8.4-2.42a12.39,12.39,0,0,1-4.92-3.2,8.29,8.29,0,0,1-2.07-5.94,8.86,8.86,0,0,1,1.91-5.59,12.37,12.37,0,0,1,5.39-3.83,22,22,0,0,1,8.09-1.37q7,0,11.21,3.32a12.84,12.84,0,0,1,4.88,8.71h-6.25a7.57,7.57,0,0,0-3-5.31,11.27,11.27,0,0,0-6.84-1.87,11.59,11.59,0,0,0-6.52,1.64,4.74,4.74,0,0,0-2.46,4,4.08,4.08,0,0,0,1.25,3.13,9,9,0,0,0,3.32,1.88q2.07,0.7,6.37,1.8a61.82,61.82,0,0,1,8,2.5,11.85,11.85,0,0,1,4.88,3.56,9.44,9.44,0,0,1,1.84,6.05,10.82,10.82,0,0,1-4.22,9.1q-4.22,3.24-11.33,3.24Q342.57,239.12,337.92,235.49Z"/><path class="cls-2" d="M402,214.51v5.08h-19.3v-5.08H402Z"/><path class="cls-2" d="M187.39,309.81h-7.66L158.8,280l-8.52,7.89v21.88h-6.64V254.33h6.64V280.2l27.89-25.86h8.44l-23.13,21.41Z"/><path class="cls-2" d="M190.25,307.51a10.86,10.86,0,0,1-3.95-8.87,9.58,9.58,0,0,1,1.91-6.25,13,13,0,0,1,5.16-3.71,77.85,77.85,0,0,1,9.26-3q0.7-.16,4.22-1.13a14.32,14.32,0,0,0,5-2.15,3.52,3.52,0,0,0,1.45-2.81,4.73,4.73,0,0,0-2.38-4,11.91,11.91,0,0,0-6.68-1.6,12.44,12.44,0,0,0-7.27,1.91,7.25,7.25,0,0,0-3,5.67h-6.33a13.25,13.25,0,0,1,5.16-8.95q4.38-3.4,11.49-3.4t11.17,3.13a10.57,10.57,0,0,1,4,8.83v28.68h-5.86v-7.42a11.39,11.39,0,0,1-4.57,6A17.12,17.12,0,0,1,190.25,307.51Zm17.7-3.36a12,12,0,0,0,4.14-5.08,16.65,16.65,0,0,0,1.41-6.84v-7.89a6.12,6.12,0,0,1-3,2.93,35.69,35.69,0,0,1-6.25,2.3,30.27,30.27,0,0,0-8.67,3.52,6.29,6.29,0,0,0-2.73,5.55,6.63,6.63,0,0,0,2.42,5.47,9.64,9.64,0,0,0,6.25,2A10.88,10.88,0,0,0,207.94,304.14Z"/><path class="cls-2" d="M229.08,307.11a13.74,13.74,0,0,1-5.2-10.2h6.33q0.47,4.69,3.59,6.84a13.9,13.9,0,0,0,8,2.15q4.61,0,6.88-2a6.54,6.54,0,0,0,2.27-5.08,5.48,5.48,0,0,0-1-3.48,7.21,7.21,0,0,0-3-2.11,49,49,0,0,0-6.17-1.84q-5.55-1.41-8.4-2.42a12.39,12.39,0,0,1-4.92-3.2,8.29,8.29,0,0,1-2.07-5.94,8.86,8.86,0,0,1,1.91-5.59,12.37,12.37,0,0,1,5.39-3.83,22,22,0,0,1,8.09-1.37q7,0,11.21,3.32a12.84,12.84,0,0,1,4.88,8.71h-6.25a7.57,7.57,0,0,0-3-5.31,11.27,11.27,0,0,0-6.84-1.87,11.59,11.59,0,0,0-6.52,1.64,4.74,4.74,0,0,0-2.46,4,4.08,4.08,0,0,0,1.25,3.13,9,9,0,0,0,3.32,1.88q2.07,0.7,6.37,1.8a61.82,61.82,0,0,1,8,2.5,11.85,11.85,0,0,1,4.88,3.56,9.44,9.44,0,0,1,1.84,6.05,10.82,10.82,0,0,1-4.22,9.1q-4.22,3.24-11.33,3.24Q233.73,310.75,229.08,307.11Z"/><path class="cls-2" d="M264.86,307.11a13.74,13.74,0,0,1-5.2-10.2H266q0.47,4.69,3.59,6.84a13.9,13.9,0,0,0,8,2.15q4.61,0,6.88-2a6.54,6.54,0,0,0,2.27-5.08,5.48,5.48,0,0,0-1-3.48,7.21,7.21,0,0,0-3-2.11,49,49,0,0,0-6.17-1.84q-5.55-1.41-8.4-2.42a12.39,12.39,0,0,1-4.92-3.2,8.29,8.29,0,0,1-2.07-5.94,8.86,8.86,0,0,1,1.91-5.59,12.37,12.37,0,0,1,5.39-3.83,22,22,0,0,1,8.09-1.37q7,0,11.21,3.32a12.84,12.84,0,0,1,4.88,8.71h-6.25a7.57,7.57,0,0,0-3-5.31,11.27,11.27,0,0,0-6.84-1.87,11.59,11.59,0,0,0-6.52,1.64,4.74,4.74,0,0,0-2.46,4,4.08,4.08,0,0,0,1.25,3.13,9,9,0,0,0,3.32,1.88q2.07,0.7,6.37,1.8a61.82,61.82,0,0,1,8,2.5,11.85,11.85,0,0,1,4.88,3.56,9.44,9.44,0,0,1,1.84,6.05,10.82,10.82,0,0,1-4.22,9.1q-4.22,3.24-11.33,3.24Q269.51,310.75,264.86,307.11Z"/><path class="cls-2" d="M298.42,279.26a18,18,0,0,1,6.68-7.38,18.77,18.77,0,0,1,10.12-2.7,18,18,0,0,1,10.24,2.93,18.48,18.48,0,0,1,6.64,8,23.61,23.61,0,0,1,2,11.06H302.64q0.24,6.64,3.59,10.59a11.56,11.56,0,0,0,9.3,3.95,10.82,10.82,0,0,0,7.23-2.34,13.27,13.27,0,0,0,4-6.17h6.49A18.68,18.68,0,0,1,326.9,307a17.65,17.65,0,0,1-11.37,3.71,19.17,19.17,0,0,1-10.2-2.7,18.26,18.26,0,0,1-6.84-7.42A25.15,25.15,0,0,1,298.42,279.26Zm25-1.76a10.91,10.91,0,0,0-8.17-3.24,11.14,11.14,0,0,0-8.28,3.24,15.48,15.48,0,0,0-4.06,8.79h24.61A16,16,0,0,0,323.39,277.5Z"/><path class="cls-2" d="M345.54,276.52q4.06-7.34,12.66-7.34a11.91,11.91,0,0,1,7.15,2.11,10.35,10.35,0,0,1,3.95,6.09,13.61,13.61,0,0,1,5.12-6,14.62,14.62,0,0,1,8.09-2.19,11.91,11.91,0,0,1,8.44,3q3.28,3,3.28,8.75v28.83h-6.09v-27q0-8.59-8.2-8.59a9,9,0,0,0-7.15,3.4,13.33,13.33,0,0,0-2.85,8.87v23.28h-6.09v-27q0-8.59-8.2-8.59a9.06,9.06,0,0,0-7.19,3.4,13.21,13.21,0,0,0-2.89,8.87v23.28h-6.09V270h6.09v6.56Z"/><path class="cls-2" d="M449.46,309.81c-1.48-1.48-2.89-3-4.92-5.16a21.58,21.58,0,0,1-15.39,6c-10.24,0-16.17-6.88-16.17-14.77,0-7.19,4.3-12.11,10.31-15.39v-0.23c-2.73-3.44-4.38-7.27-4.38-11,0-6.41,4.61-13,13.36-13,6.56,0,11.64,4.38,11.64,11.17,0,5.55-3.2,9.92-11.56,14.06v0.23c4.45,5.16,9.46,10.94,12.81,14.69,2.42-3.67,4.06-8.75,5.08-15.39h6.25c-1.41,8.28-3.67,14.85-7.58,19.46,2.81,3,5.55,5.94,8.67,9.3h-8.13Zm-8.28-9.06c-3.13-3.44-9-9.85-14.85-16.57-2.81,1.8-6.8,5.16-6.8,10.71a10.39,10.39,0,0,0,10.78,10.63A14.71,14.71,0,0,0,441.18,300.75Zm-16-32.12c0,3.75,1.72,6.64,4,9.46,5.31-3,8.75-5.86,8.75-10.31,0-3.2-1.8-6.8-6.09-6.8S425.16,264.57,425.16,268.63Z"/><path class="cls-2" d="M198.8,326v55.48h-6.64V333L174.5,381.43h-6.56L150.28,333v48.44h-6.64V326h10.55l17,47.27,17-47.27H198.8Z"/><path class="cls-2" d="M213.72,379.68a18.26,18.26,0,0,1-6.68-7.42,23.53,23.53,0,0,1-2.38-10.74A23.11,23.11,0,0,1,207,350.88a18.67,18.67,0,0,1,33.36,0,23.12,23.12,0,0,1,2.38,10.63,23.54,23.54,0,0,1-2.38,10.74A19.15,19.15,0,0,1,213.72,379.68Zm19.14-6.76q3.36-4.38,3.36-11.41t-3.36-11.29a11.8,11.8,0,0,0-18.28,0q-3.36,4.34-3.36,11.29t3.36,11.41A11.74,11.74,0,0,0,232.87,372.92Z"/><path class="cls-2" d="M254.35,326v55.48h-6.09V326h6.09Z"/><path class="cls-2" d="M268.34,326v7.81h-6.09V326h6.09Zm0,15.63v39.85h-6.09V341.59h6.09Z"/><path class="cls-2" d="M282.33,348.3a13.64,13.64,0,0,1,4.88-5.39,14.84,14.84,0,0,1,8.24-2.11q6.33,0,9.73,3.4t3.4,9.34v27.89h-6.09V354.56q0-4.22-2.19-6.45t-7-2.23a10.35,10.35,0,0,0-7.85,3.36,12.57,12.57,0,0,0-3.16,9v23.21h-6.09V341.59h6.09v6.72Z"/><path class="cls-2" d="M316.08,350.88a18,18,0,0,1,6.68-7.38,18.77,18.77,0,0,1,10.12-2.7,18,18,0,0,1,10.24,2.93,18.48,18.48,0,0,1,6.64,8,23.61,23.61,0,0,1,2,11.06H320.3q0.24,6.64,3.59,10.59a11.56,11.56,0,0,0,9.3,3.95,10.82,10.82,0,0,0,7.23-2.34,13.27,13.27,0,0,0,4-6.17h6.49a18.68,18.68,0,0,1-6.37,9.88,17.65,17.65,0,0,1-11.37,3.71,19.17,19.17,0,0,1-10.2-2.7,18.26,18.26,0,0,1-6.84-7.42A25.15,25.15,0,0,1,316.08,350.88Zm25-1.76a10.91,10.91,0,0,0-8.17-3.24,11.14,11.14,0,0,0-8.28,3.24,15.48,15.48,0,0,0-4.06,8.79h24.61A16,16,0,0,0,341,349.13Z"/><path class="cls-2" d="M377.57,341.59v5.86h-4.22q-5.31,0-7.77,2.54t-2.38,8.79v22.66H357.1V341.59H363V349a11.18,11.18,0,0,1,4.34-5.43,13.23,13.23,0,0,1,7.46-2h2.73Z"/><path class="cls-2" d="M386.32,379.68a18.26,18.26,0,0,1-6.68-7.42,23.53,23.53,0,0,1-2.38-10.74,23.11,23.11,0,0,1,2.38-10.63,18.67,18.67,0,0,1,33.36,0,23.12,23.12,0,0,1,2.38,10.63A23.54,23.54,0,0,1,413,372.25,19.15,19.15,0,0,1,386.32,379.68Zm19.14-6.76q3.36-4.38,3.36-11.41t-3.36-11.29a11.8,11.8,0,0,0-18.28,0q-3.36,4.34-3.36,11.29t3.36,11.41A11.74,11.74,0,0,0,405.47,372.92Z"/><path class="cls-2" d="M316.23,192.46h-4.77l5-8.33h5.72Z"/></svg>