<svg id="Capa_1" data-name="Capa 1" xmlns="http://www.w3.org/2000/svg" viewBox="0 0 595.28 595.28"><defs><style>.cls-1{fill:#0d262e;}.cls-2{fill:#d6d193;}</style></defs><title>Recuros AKM</title><rect class="cls-1" x="-8.68" y="-8.68" width="612.65" height="612.65"/><path class="cls-2" d="M100.49,91.53H98.34l-5.09,13.89H95l1.37-3.85h6.08l1.35,3.85h1.8Zm-3.66,8.61,2.54-7.2,2.54,7.2H96.83Z"/><polygon class="cls-2" points="86.52 121.48 86.52 121.48 86.52 121.48 92.31 116.12 90.2 116.12 83.21 122.6 83.21 116.12 81.55 116.12 81.55 130.01 83.21 130.01 83.21 124.54 85.35 122.56 90.59 130.01 90.59 130.01 92.51 130.01 92.51 130.01 88.23 123.92 86.52 121.48"/><polygon class="cls-2" points="116.08 116.18 111.81 128.02 107.55 116.18 104.91 116.18 104.91 130.07 106.57 130.07 106.57 117.94 110.99 130.07 112.64 130.07 117.06 117.94 117.06 130.07 118.72 130.07 118.72 116.18 116.08 116.18"/><path class="cls-2" d="M152.83,91.53h-2.15l-5.09,13.89h1.72l1.37-3.85h6.08l1.35,3.85h1.8Zm-3.66,8.61,2.54-7.2,2.54,7.2h-5.09Z"/><polygon class="cls-2" points="138.86 121.48 138.86 121.48 138.86 121.48 144.65 116.12 142.54 116.12 135.55 122.6 135.55 116.12 133.89 116.12 133.89 130.01 135.55 130.01 135.55 124.54 137.69 122.56 142.93 130.01 142.93 130.01 144.84 130.01 144.84 130.01 140.57 123.92 138.86 121.48"/><polygon class="cls-2" points="168.42 116.18 164.15 128.02 159.89 116.18 157.25 116.18 157.25 130.07 158.91 130.07 158.91 117.94 163.33 130.07 164.97 130.07 169.4 117.94 169.4 130.07 171.06 130.07 171.06 116.18 168.42 116.18"/><path class="cls-2" d="M205.17,91.53H203l-5.09,13.89h1.72l1.37-3.85h6.08l1.35,3.85h1.8Zm-3.66,8.61,2.54-7.2,2.54,7.2h-5.09Z"/><polygon class="cls-2" points="191.2 121.48 191.2 121.48 191.2 121.48 196.99 116.12 194.88 116.12 187.89 122.6 187.89 116.12 186.23 116.12 186.23 130.01 187.89 130.01 187.89 124.54 190.02 122.56 195.27 130.01 195.27 130.01 197.18 130.01 197.18 130.01 192.91 123.92 191.2 121.48"/><polygon class="cls-2" points="220.75 116.18 216.49 128.02 212.22 116.18 209.58 116.18 209.58 130.07 211.25 130.07 211.25 117.94 215.67 130.07 217.31 130.07 221.73 117.94 221.73 130.07 223.4 130.07 223.4 116.18 220.75 116.18"/><path class="cls-2" d="M257.5,91.53h-2.15l-5.09,13.89H252l1.37-3.85h6.08l1.35,3.85h1.8Zm-3.66,8.61,2.54-7.2,2.54,7.2h-5.09Z"/><polygon class="cls-2" points="243.53 121.48 243.53 121.48 243.53 121.48 249.33 116.12 247.21 116.12 240.23 122.6 240.23 116.12 238.56 116.12 238.56 130.01 240.23 130.01 240.23 124.54 242.36 122.56 247.6 130.01 247.6 130.01 249.52 130.01 249.52 130.01 245.24 123.92 243.53 121.48"/><polygon class="cls-2" points="273.09 116.18 268.83 128.02 264.56 116.18 261.92 116.18 261.92 130.07 263.58 130.07 263.58 117.94 268.01 130.07 269.65 130.07 274.07 117.94 274.07 130.07 275.73 130.07 275.73 116.18 273.09 116.18"/><path class="cls-2" d="M309.84,91.53h-2.15l-5.09,13.89h1.72l1.37-3.85h6.08l1.35,3.85h1.8Zm-3.66,8.61,2.54-7.2,2.54,7.2h-5.09Z"/><polygon class="cls-2" points="295.87 121.48 295.87 121.48 295.87 121.48 301.66 116.12 299.55 116.12 292.57 122.6 292.57 116.12 290.9 116.12 290.9 130.01 292.57 130.01 292.57 124.54 294.7 122.56 299.94 130.01 299.94 130.01 301.86 130.01 301.86 130.01 297.58 123.92 295.87 121.48"/><polygon class="cls-2" points="325.43 116.18 321.17 128.02 316.9 116.18 314.26 116.18 314.26 130.07 315.92 130.07 315.92 117.94 320.34 130.07 321.99 130.07 326.41 117.94 326.41 130.07 328.07 130.07 328.07 116.18 325.43 116.18"/><path class="cls-2" d="M362.18,91.53H360l-5.09,13.89h1.72l1.37-3.85h6.08l1.35,3.85h1.8Zm-3.66,8.61,2.54-7.2,2.54,7.2h-5.09Z"/><polygon class="cls-2" points="348.21 121.48 348.21 121.48 348.21 121.48 354 116.12 351.89 116.12 344.9 122.6 344.9 116.12 343.24 116.12 343.24 130.01 344.9 130.01 344.9 124.54 347.04 122.56 352.28 130.01 352.28 130.01 354.2 130.01 354.2 130.01 349.92 123.92 348.21 121.48"/><polygon class="cls-2" points="377.77 116.18 373.5 128.02 369.24 116.18 366.6 116.18 366.6 130.07 368.26 130.07 368.26 117.94 372.68 130.07 374.33 130.07 378.75 117.94 378.75 130.07 380.41 130.07 380.41 116.18 377.77 116.18"/><path class="cls-2" d="M414.52,91.53h-2.15l-5.09,13.89H409l1.37-3.85h6.08l1.35,3.85h1.8Zm-3.66,8.61,2.54-7.2,2.54,7.2h-5.09Z"/><polygon class="cls-2" points="400.55 121.48 400.55 121.48 400.55 121.48 406.34 116.12 404.23 116.12 397.24 122.6 397.24 116.12 395.58 116.12 395.58 130.01 397.24 130.01 397.24 124.54 399.38 122.56 404.62 130.01 404.62 130.01 406.54 130.01 406.54 130.01 402.26 123.92 400.55 121.48"/><polygon class="cls-2" points="430.11 116.18 425.84 128.02 421.58 116.18 418.94 116.18 418.94 130.07 420.6 130.07 420.6 117.94 425.02 130.07 426.66 130.07 431.08 117.94 431.08 130.07 432.75 130.07 432.75 116.18 430.11 116.18"/><path class="cls-2" d="M466.86,91.53H464.7l-5.09,13.89h1.72l1.37-3.85h6.08l1.35,3.85h1.8Zm-3.66,8.61,2.54-7.2,2.54,7.2H463.2Z"/><polygon class="cls-2" points="452.89 121.48 452.89 121.48 452.89 121.48 458.68 116.12 456.56 116.12 449.58 122.6 449.58 116.12 447.92 116.12 447.92 130.01 449.58 130.01 449.58 124.54 451.71 122.56 456.96 130.01 456.96 130.01 458.87 130.01 458.87 130.01 454.6 123.92 452.89 121.48"/><polygon class="cls-2" points="482.44 116.18 478.18 128.02 473.92 116.18 471.27 116.18 471.27 130.07 472.94 130.07 472.94 117.94 477.36 130.07 479 130.07 483.42 117.94 483.42 130.07 485.09 130.07 485.09 116.18 482.44 116.18"/><path class="cls-2" d="M519.19,91.53H517L512,105.42h1.72l1.37-3.85h6.08l1.35,3.85h1.8Zm-3.66,8.61,2.54-7.2,2.54,7.2h-5.09Z"/><polygon class="cls-2" points="505.23 121.48 505.23 121.48 505.23 121.48 511.02 116.12 508.9 116.12 501.92 122.6 501.92 116.12 500.26 116.12 500.26 130.01 501.92 130.01 501.92 124.54 504.05 122.56 509.29 130.01 509.3 130.01 511.21 130.01 511.21 130.01 506.93 123.92 505.23 121.48"/><polygon class="cls-2" points="534.78 116.18 530.52 128.02 526.25 116.18 523.61 116.18 523.61 130.07 525.27 130.07 525.27 117.94 529.7 130.07 531.34 130.07 535.76 117.94 535.76 130.07 537.42 130.07 537.42 116.18 534.78 116.18"/><path class="cls-2" d="M76.79,138.24H74.64l-5.09,13.89h1.72l1.37-3.85h6.08l1.35,3.85h1.8Zm-3.66,8.61,2.54-7.2,2.54,7.2H73.14Z"/><polygon class="cls-2" points="62.83 168.19 62.82 168.19 62.82 168.19 68.61 162.83 66.5 162.83 59.52 169.31 59.52 162.83 57.85 162.83 57.85 176.72 59.52 176.72 59.52 171.25 61.65 169.27 66.89 176.72 66.89 176.72 68.81 176.72 68.81 176.72 64.53 170.63 62.83 168.19"/><polygon class="cls-2" points="92.38 162.89 88.12 174.73 83.85 162.89 81.21 162.89 81.21 176.78 82.88 176.78 82.88 164.65 87.3 176.78 88.94 176.78 93.36 164.65 93.36 176.78 95.02 176.78 95.02 162.89 92.38 162.89"/><path class="cls-2" d="M129.13,138.24H127l-5.09,13.89h1.72l1.37-3.85h6.08l1.35,3.85h1.8Zm-3.66,8.61,2.54-7.2,2.54,7.2h-5.09Z"/><polygon class="cls-2" points="115.16 168.19 115.16 168.19 115.16 168.19 120.95 162.83 118.84 162.83 111.86 169.31 111.86 162.83 110.19 162.83 110.19 176.72 111.86 176.72 111.86 171.25 113.99 169.27 119.23 176.72 119.23 176.72 121.15 176.72 121.15 176.72 116.87 170.63 115.16 168.19"/><polygon class="cls-2" points="144.72 162.89 140.46 174.73 136.19 162.89 133.55 162.89 133.55 176.78 135.21 176.78 135.21 164.65 139.63 176.78 141.28 176.78 145.7 164.65 145.7 176.78 147.36 176.78 147.36 162.89 144.72 162.89"/><path class="cls-2" d="M181.47,138.24h-2.15l-5.09,13.89H176l1.37-3.85h6.08l1.35,3.85h1.8Zm-3.66,8.61,2.54-7.2,2.54,7.2h-5.09Z"/><polygon class="cls-2" points="167.5 168.19 167.5 168.19 167.5 168.19 173.29 162.83 171.18 162.83 164.19 169.31 164.19 162.83 162.53 162.83 162.53 176.72 164.19 176.72 164.19 171.25 166.33 169.27 171.57 176.72 171.57 176.72 173.49 176.72 173.49 176.72 169.21 170.63 167.5 168.19"/><polygon class="cls-2" points="197.06 162.89 192.79 174.73 188.53 162.89 185.89 162.89 185.89 176.78 187.55 176.78 187.55 164.65 191.97 176.78 193.62 176.78 198.04 164.65 198.04 176.78 199.7 176.78 199.7 162.89 197.06 162.89"/><path class="cls-2" d="M233.81,138.24h-2.15l-5.09,13.89h1.72l1.37-3.85h6.08l1.35,3.85h1.8Zm-3.66,8.61,2.54-7.2,2.54,7.2h-5.09Z"/><polygon class="cls-2" points="219.84 168.19 219.84 168.19 219.84 168.19 225.63 162.83 223.52 162.83 216.53 169.31 216.53 162.83 214.87 162.83 214.87 176.72 216.53 176.72 216.53 171.25 218.66 169.27 223.91 176.72 223.91 176.72 225.82 176.72 225.82 176.72 221.55 170.63 219.84 168.19"/><polygon class="cls-2" points="249.4 162.89 245.13 174.73 240.87 162.89 238.23 162.89 238.23 176.78 239.89 176.78 239.89 164.65 244.31 176.78 245.95 176.78 250.38 164.65 250.38 176.78 252.04 176.78 252.04 162.89 249.4 162.89"/><path class="cls-2" d="M286.15,138.24H284l-5.09,13.89h1.72l1.37-3.85h6.08l1.35,3.85h1.8Zm-3.66,8.61,2.54-7.2,2.54,7.2h-5.09Z"/><polygon class="cls-2" points="272.18 168.19 272.18 168.19 272.18 168.19 277.97 162.83 275.86 162.83 268.87 169.31 268.87 162.83 267.21 162.83 267.21 176.72 268.87 176.72 268.87 171.25 271 169.27 276.25 176.72 276.25 176.72 278.16 176.72 278.16 176.72 273.88 170.63 272.18 168.19"/><polygon class="cls-2" points="301.74 162.89 297.47 174.73 293.2 162.89 290.56 162.89 290.56 176.78 292.23 176.78 292.23 164.65 296.65 176.78 298.29 176.78 302.71 164.65 302.71 176.78 304.38 176.78 304.38 162.89 301.74 162.89"/><path class="cls-2" d="M338.48,138.24h-2.15l-5.09,13.89H333l1.37-3.85h6.08l1.35,3.85h1.8Zm-3.66,8.61,2.54-7.2,2.54,7.2h-5.09Z"/><polygon class="cls-2" points="324.51 168.19 324.51 168.19 324.51 168.19 330.31 162.83 328.19 162.83 321.21 169.31 321.21 162.83 319.55 162.83 319.55 176.72 321.21 176.72 321.21 171.25 323.34 169.27 328.58 176.72 328.58 176.72 330.5 176.72 330.5 176.72 326.22 170.63 324.51 168.19"/><polygon class="cls-2" points="354.07 162.89 349.81 174.73 345.54 162.89 342.9 162.89 342.9 176.78 344.56 176.78 344.56 164.65 348.99 176.78 350.63 176.78 355.05 164.65 355.05 176.78 356.71 176.78 356.71 162.89 354.07 162.89"/><path class="cls-2" d="M390.82,138.24h-2.15l-5.09,13.89h1.72l1.37-3.85h6.08l1.35,3.85h1.8Zm-3.66,8.61,2.54-7.2,2.54,7.2h-5.09Z"/><polygon class="cls-2" points="376.85 168.19 376.85 168.19 376.85 168.19 382.64 162.83 380.53 162.83 373.55 169.31 373.55 162.83 371.88 162.83 371.88 176.72 373.55 176.72 373.55 171.25 375.68 169.27 380.92 176.72 380.92 176.72 382.84 176.72 382.84 176.72 378.56 170.63 376.85 168.19"/><polygon class="cls-2" points="406.41 162.89 402.15 174.73 397.88 162.89 395.24 162.89 395.24 176.78 396.9 176.78 396.9 164.65 401.32 176.78 402.97 176.78 407.39 164.65 407.39 176.78 409.05 176.78 409.05 162.89 406.41 162.89"/><path class="cls-2" d="M443.16,138.24H441l-5.09,13.89h1.72l1.37-3.85h6.08l1.35,3.85h1.8Zm-3.66,8.61,2.54-7.2,2.54,7.2H439.5Z"/><polygon class="cls-2" points="429.19 168.19 429.19 168.19 429.19 168.19 434.98 162.83 432.87 162.83 425.88 169.31 425.88 162.83 424.22 162.83 424.22 176.72 425.88 176.72 425.88 171.25 428.02 169.27 433.26 176.72 433.26 176.72 435.18 176.72 435.18 176.72 430.9 170.63 429.19 168.19"/><polygon class="cls-2" points="458.75 162.89 454.48 174.73 450.22 162.89 447.58 162.89 447.58 176.78 449.24 176.78 449.24 164.65 453.66 176.78 455.31 176.78 459.73 164.65 459.73 176.78 461.39 176.78 461.39 162.89 458.75 162.89"/><path class="cls-2" d="M495.5,138.24h-2.15l-5.09,13.89H490l1.37-3.85h6.08l1.35,3.85h1.8Zm-3.66,8.61,2.54-7.2,2.54,7.2h-5.09Z"/><polygon class="cls-2" points="481.53 168.19 481.53 168.19 481.53 168.19 487.32 162.83 485.21 162.83 478.22 169.31 478.22 162.83 476.56 162.83 476.56 176.72 478.22 176.72 478.22 171.25 480.36 169.27 485.6 176.72 485.6 176.72 487.51 176.72 487.52 176.72 483.24 170.63 481.53 168.19"/><polygon class="cls-2" points="511.09 162.89 506.82 174.73 502.56 162.89 499.92 162.89 499.92 176.78 501.58 176.78 501.58 164.65 506 176.78 507.64 176.78 512.07 164.65 512.07 176.78 513.73 176.78 513.73 162.89 511.09 162.89"/><path class="cls-2" d="M100.49,184.95H98.34l-5.09,13.89H95L96.34,195h6.08l1.35,3.85h1.8Zm-3.66,8.61,2.54-7.2,2.54,7.2H96.83Z"/><polygon class="cls-2" points="86.52 214.9 86.52 214.9 86.52 214.9 92.31 209.54 90.2 209.54 83.21 216.02 83.21 209.54 81.55 209.54 81.55 223.43 83.21 223.43 83.21 217.96 85.35 215.98 90.59 223.43 90.59 223.43 92.51 223.43 92.51 223.43 88.23 217.34 86.52 214.9"/><polygon class="cls-2" points="116.08 209.6 111.81 221.44 107.55 209.6 104.91 209.6 104.91 223.49 106.57 223.49 106.57 211.36 110.99 223.49 112.64 223.49 117.06 211.36 117.06 223.49 118.72 223.49 118.72 209.6 116.08 209.6"/><path class="cls-2" d="M152.83,184.95h-2.15l-5.09,13.89h1.72l1.37-3.85h6.08l1.35,3.85h1.8Zm-3.66,8.61,2.54-7.2,2.54,7.2h-5.09Z"/><polygon class="cls-2" points="138.86 214.9 138.86 214.9 138.86 214.9 144.65 209.54 142.54 209.54 135.55 216.02 135.55 209.54 133.89 209.54 133.89 223.43 135.55 223.43 135.55 217.96 137.69 215.98 142.93 223.43 142.93 223.43 144.84 223.43 144.84 223.43 140.57 217.34 138.86 214.9"/><polygon class="cls-2" points="168.42 209.6 164.15 221.44 159.89 209.6 157.25 209.6 157.25 223.49 158.91 223.49 158.91 211.36 163.33 223.49 164.97 223.49 169.4 211.36 169.4 223.49 171.06 223.49 171.06 209.6 168.42 209.6"/><path class="cls-2" d="M205.17,184.95H203l-5.09,13.89h1.72L201,195h6.08l1.35,3.85h1.8Zm-3.66,8.61,2.54-7.2,2.54,7.2h-5.09Z"/><polygon class="cls-2" points="191.2 214.9 191.2 214.9 191.2 214.9 196.99 209.54 194.88 209.54 187.89 216.02 187.89 209.54 186.23 209.54 186.23 223.43 187.89 223.43 187.89 217.96 190.02 215.98 195.27 223.43 195.27 223.43 197.18 223.43 197.18 223.43 192.91 217.34 191.2 214.9"/><polygon class="cls-2" points="220.75 209.6 216.49 221.44 212.22 209.6 209.58 209.6 209.58 223.49 211.25 223.49 211.25 211.36 215.67 223.49 217.31 223.49 221.73 211.36 221.73 223.49 223.4 223.49 223.4 209.6 220.75 209.6"/><path class="cls-2" d="M257.5,184.95h-2.15l-5.09,13.89H252l1.37-3.85h6.08l1.35,3.85h1.8Zm-3.66,8.61,2.54-7.2,2.54,7.2h-5.09Z"/><polygon class="cls-2" points="243.53 214.9 243.53 214.9 243.53 214.9 249.33 209.54 247.21 209.54 240.23 216.02 240.23 209.54 238.56 209.54 238.56 223.43 240.23 223.43 240.23 217.96 242.36 215.98 247.6 223.43 247.6 223.43 249.52 223.43 249.52 223.43 245.24 217.34 243.53 214.9"/><polygon class="cls-2" points="273.09 209.6 268.83 221.44 264.56 209.6 261.92 209.6 261.92 223.49 263.58 223.49 263.58 211.36 268.01 223.49 269.65 223.49 274.07 211.36 274.07 223.49 275.73 223.49 275.73 209.6 273.09 209.6"/><path class="cls-2" d="M309.84,184.95h-2.15l-5.09,13.89h1.72l1.37-3.85h6.08l1.35,3.85h1.8Zm-3.66,8.61,2.54-7.2,2.54,7.2h-5.09Z"/><polygon class="cls-2" points="295.87 214.9 295.87 214.9 295.87 214.9 301.66 209.54 299.55 209.54 292.57 216.02 292.57 209.54 290.9 209.54 290.9 223.43 292.57 223.43 292.57 217.96 294.7 215.98 299.94 223.43 299.94 223.43 301.86 223.43 301.86 223.43 297.58 217.34 295.87 214.9"/><polygon class="cls-2" points="325.43 209.6 321.17 221.44 316.9 209.6 314.26 209.6 314.26 223.49 315.92 223.49 315.92 211.36 320.34 223.49 321.99 223.49 326.41 211.36 326.41 223.49 328.07 223.49 328.07 209.6 325.43 209.6"/><path class="cls-2" d="M362.18,184.95H360l-5.09,13.89h1.72L358,195h6.08l1.35,3.85h1.8Zm-3.66,8.61,2.54-7.2,2.54,7.2h-5.09Z"/><polygon class="cls-2" points="348.21 214.9 348.21 214.9 348.21 214.9 354 209.54 351.89 209.54 344.9 216.02 344.9 209.54 343.24 209.54 343.24 223.43 344.9 223.43 344.9 217.96 347.04 215.98 352.28 223.43 352.28 223.43 354.2 223.43 354.2 223.43 349.92 217.34 348.21 214.9"/><polygon class="cls-2" points="377.77 209.6 373.5 221.44 369.24 209.6 366.6 209.6 366.6 223.49 368.26 223.49 368.26 211.36 372.68 223.49 374.33 223.49 378.75 211.36 378.75 223.49 380.41 223.49 380.41 209.6 377.77 209.6"/><path class="cls-2" d="M414.52,184.95h-2.15l-5.09,13.89H409l1.37-3.85h6.08l1.35,3.85h1.8Zm-3.66,8.61,2.54-7.2,2.54,7.2h-5.09Z"/><polygon class="cls-2" points="400.55 214.9 400.55 214.9 400.55 214.9 406.34 209.54 404.23 209.54 397.24 216.02 397.24 209.54 395.58 209.54 395.58 223.43 397.24 223.43 397.24 217.96 399.38 215.98 404.62 223.43 404.62 223.43 406.54 223.43 406.54 223.43 402.26 217.34 400.55 214.9"/><polygon class="cls-2" points="430.11 209.6 425.84 221.44 421.58 209.6 418.94 209.6 418.94 223.49 420.6 223.49 420.6 211.36 425.02 223.49 426.66 223.49 431.08 211.36 431.08 223.49 432.75 223.49 432.75 209.6 430.11 209.6"/><path class="cls-2" d="M466.86,184.95H464.7l-5.09,13.89h1.72l1.37-3.85h6.08l1.35,3.85h1.8Zm-3.66,8.61,2.54-7.2,2.54,7.2H463.2Z"/><polygon class="cls-2" points="452.89 214.9 452.89 214.9 452.89 214.9 458.68 209.54 456.56 209.54 449.58 216.02 449.58 209.54 447.92 209.54 447.92 223.43 449.58 223.43 449.58 217.96 451.71 215.98 456.96 223.43 456.96 223.43 458.87 223.43 458.87 223.43 454.6 217.34 452.89 214.9"/><polygon class="cls-2" points="482.44 209.6 478.18 221.44 473.92 209.6 471.27 209.6 471.27 223.49 472.94 223.49 472.94 211.36 477.36 223.49 479 223.49 483.42 211.36 483.42 223.49 485.09 223.49 485.09 209.6 482.44 209.6"/><path class="cls-2" d="M519.19,184.95H517L512,198.84h1.72L515,195h6.08l1.35,3.85h1.8Zm-3.66,8.61,2.54-7.2,2.54,7.2h-5.09Z"/><polygon class="cls-2" points="505.23 214.9 505.23 214.9 505.23 214.9 511.02 209.54 508.9 209.54 501.92 216.02 501.92 209.54 500.26 209.54 500.26 223.43 501.92 223.43 501.92 217.96 504.05 215.98 509.29 223.43 509.3 223.43 511.21 223.43 511.21 223.43 506.93 217.34 505.23 214.9"/><polygon class="cls-2" points="534.78 209.6 530.52 221.44 526.25 209.6 523.61 209.6 523.61 223.49 525.27 223.49 525.27 211.36 529.7 223.49 531.34 223.49 535.76 211.36 535.76 223.49 537.42 223.49 537.42 209.6 534.78 209.6"/><path class="cls-2" d="M76.79,231.66H74.64l-5.09,13.89h1.72l1.37-3.85h6.08l1.35,3.85h1.8Zm-3.66,8.61,2.54-7.2,2.54,7.2H73.14Z"/><polygon class="cls-2" points="62.83 261.61 62.82 261.61 62.82 261.61 68.61 256.25 66.5 256.25 59.52 262.73 59.52 256.25 57.85 256.25 57.85 270.14 59.52 270.14 59.52 264.67 61.65 262.69 66.89 270.14 66.89 270.14 68.81 270.14 68.81 270.14 64.53 264.05 62.83 261.61"/><polygon class="cls-2" points="92.38 256.31 88.12 268.15 83.85 256.31 81.21 256.31 81.21 270.2 82.88 270.2 82.88 258.07 87.3 270.2 88.94 270.2 93.36 258.07 93.36 270.2 95.02 270.2 95.02 256.31 92.38 256.31"/><path class="cls-2" d="M129.13,231.66H127l-5.09,13.89h1.72l1.37-3.85h6.08l1.35,3.85h1.8Zm-3.66,8.61,2.54-7.2,2.54,7.2h-5.09Z"/><polygon class="cls-2" points="115.16 261.61 115.16 261.61 115.16 261.61 120.95 256.25 118.84 256.25 111.86 262.73 111.86 256.25 110.19 256.25 110.19 270.14 111.86 270.14 111.86 264.67 113.99 262.69 119.23 270.14 119.23 270.14 121.15 270.14 121.15 270.14 116.87 264.05 115.16 261.61"/><polygon class="cls-2" points="144.72 256.31 140.46 268.15 136.19 256.31 133.55 256.31 133.55 270.2 135.21 270.2 135.21 258.07 139.63 270.2 141.28 270.2 145.7 258.07 145.7 270.2 147.36 270.2 147.36 256.31 144.72 256.31"/><path class="cls-2" d="M181.47,231.66h-2.15l-5.09,13.89H176l1.37-3.85h6.08l1.35,3.85h1.8Zm-3.66,8.61,2.54-7.2,2.54,7.2h-5.09Z"/><polygon class="cls-2" points="167.5 261.61 167.5 261.61 167.5 261.61 173.29 256.25 171.18 256.25 164.19 262.73 164.19 256.25 162.53 256.25 162.53 270.14 164.19 270.14 164.19 264.67 166.33 262.69 171.57 270.14 171.57 270.14 173.49 270.14 173.49 270.14 169.21 264.05 167.5 261.61"/><polygon class="cls-2" points="197.06 256.31 192.79 268.15 188.53 256.31 185.89 256.31 185.89 270.2 187.55 270.2 187.55 258.07 191.97 270.2 193.62 270.2 198.04 258.07 198.04 270.2 199.7 270.2 199.7 256.31 197.06 256.31"/><path class="cls-2" d="M233.81,231.66h-2.15l-5.09,13.89h1.72l1.37-3.85h6.08l1.35,3.85h1.8Zm-3.66,8.61,2.54-7.2,2.54,7.2h-5.09Z"/><polygon class="cls-2" points="219.84 261.61 219.84 261.61 219.84 261.61 225.63 256.25 223.52 256.25 216.53 262.73 216.53 256.25 214.87 256.25 214.87 270.14 216.53 270.14 216.53 264.67 218.66 262.69 223.91 270.14 223.91 270.14 225.82 270.14 225.82 270.14 221.55 264.05 219.84 261.61"/><polygon class="cls-2" points="249.4 256.31 245.13 268.15 240.87 256.31 238.23 256.31 238.23 270.2 239.89 270.2 239.89 258.07 244.31 270.2 245.95 270.2 250.38 258.07 250.38 270.2 252.04 270.2 252.04 256.31 249.4 256.31"/><path class="cls-2" d="M286.15,231.66H284l-5.09,13.89h1.72l1.37-3.85h6.08l1.35,3.85h1.8Zm-3.66,8.61,2.54-7.2,2.54,7.2h-5.09Z"/><polygon class="cls-2" points="272.18 261.61 272.18 261.61 272.18 261.61 277.97 256.25 275.86 256.25 268.87 262.73 268.87 256.25 267.21 256.25 267.21 270.14 268.87 270.14 268.87 264.67 271 262.69 276.25 270.14 276.25 270.14 278.16 270.14 278.16 270.14 273.88 264.05 272.18 261.61"/><polygon class="cls-2" points="301.74 256.31 297.47 268.15 293.2 256.31 290.56 256.31 290.56 270.2 292.23 270.2 292.23 258.07 296.65 270.2 298.29 270.2 302.71 258.07 302.71 270.2 304.38 270.2 304.38 256.31 301.74 256.31"/><path class="cls-2" d="M338.48,231.66h-2.15l-5.09,13.89H333l1.37-3.85h6.08l1.35,3.85h1.8Zm-3.66,8.61,2.54-7.2,2.54,7.2h-5.09Z"/><polygon class="cls-2" points="324.51 261.61 324.51 261.61 324.51 261.61 330.31 256.25 328.19 256.25 321.21 262.73 321.21 256.25 319.55 256.25 319.55 270.14 321.21 270.14 321.21 264.67 323.34 262.69 328.58 270.14 328.58 270.14 330.5 270.14 330.5 270.14 326.22 264.05 324.51 261.61"/><polygon class="cls-2" points="354.07 256.31 349.81 268.15 345.54 256.31 342.9 256.31 342.9 270.2 344.56 270.2 344.56 258.07 348.99 270.2 350.63 270.2 355.05 258.07 355.05 270.2 356.71 270.2 356.71 256.31 354.07 256.31"/><path class="cls-2" d="M390.82,231.66h-2.15l-5.09,13.89h1.72l1.37-3.85h6.08l1.35,3.85h1.8Zm-3.66,8.61,2.54-7.2,2.54,7.2h-5.09Z"/><polygon class="cls-2" points="376.85 261.61 376.85 261.61 376.85 261.61 382.64 256.25 380.53 256.25 373.55 262.73 373.55 256.25 371.88 256.25 371.88 270.14 373.55 270.14 373.55 264.67 375.68 262.69 380.92 270.14 380.92 270.14 382.84 270.14 382.84 270.14 378.56 264.05 376.85 261.61"/><polygon class="cls-2" points="406.41 256.31 402.15 268.15 397.88 256.31 395.24 256.31 395.24 270.2 396.9 270.2 396.9 258.07 401.32 270.2 402.97 270.2 407.39 258.07 407.39 270.2 409.05 270.2 409.05 256.31 406.41 256.31"/><path class="cls-2" d="M443.16,231.66H441l-5.09,13.89h1.72l1.37-3.85h6.08l1.35,3.85h1.8Zm-3.66,8.61,2.54-7.2,2.54,7.2H439.5Z"/><polygon class="cls-2" points="429.19 261.61 429.19 261.61 429.19 261.61 434.98 256.25 432.87 256.25 425.88 262.73 425.88 256.25 424.22 256.25 424.22 270.14 425.88 270.14 425.88 264.67 428.02 262.69 433.26 270.14 433.26 270.14 435.18 270.14 435.18 270.14 430.9 264.05 429.19 261.61"/><polygon class="cls-2" points="458.75 256.31 454.48 268.15 450.22 256.31 447.58 256.31 447.58 270.2 449.24 270.2 449.24 258.07 453.66 270.2 455.31 270.2 459.73 258.07 459.73 270.2 461.39 270.2 461.39 256.31 458.75 256.31"/><path class="cls-2" d="M495.5,231.66h-2.15l-5.09,13.89H490l1.37-3.85h6.08l1.35,3.85h1.8Zm-3.66,8.61,2.54-7.2,2.54,7.2h-5.09Z"/><polygon class="cls-2" points="481.53 261.61 481.53 261.61 481.53 261.61 487.32 256.25 485.21 256.25 478.22 262.73 478.22 256.25 476.56 256.25 476.56 270.14 478.22 270.14 478.22 264.67 480.36 262.69 485.6 270.14 485.6 270.14 487.51 270.14 487.52 270.14 483.24 264.05 481.53 261.61"/><polygon class="cls-2" points="511.09 256.31 506.82 268.15 502.56 256.31 499.92 256.31 499.92 270.2 501.58 270.2 501.58 258.07 506 270.2 507.64 270.2 512.07 258.07 512.07 270.2 513.73 270.2 513.73 256.31 511.09 256.31"/><path class="cls-2" d="M100.49,278.37H98.34l-5.09,13.89H95l1.37-3.85h6.08l1.35,3.85h1.8ZM96.83,287l2.54-7.2,2.54,7.2H96.83Z"/><polygon class="cls-2" points="86.52 308.32 86.52 308.32 86.52 308.32 92.31 302.96 90.2 302.96 83.21 309.44 83.21 302.96 81.55 302.96 81.55 316.85 83.21 316.85 83.21 311.38 85.35 309.4 90.59 316.85 90.59 316.85 92.51 316.85 92.51 316.85 88.23 310.76 86.52 308.32"/><polygon class="cls-2" points="116.08 303.02 111.81 314.86 107.55 303.02 104.91 303.02 104.91 316.91 106.57 316.91 106.57 304.78 110.99 316.91 112.64 316.91 117.06 304.78 117.06 316.91 118.72 316.91 118.72 303.02 116.08 303.02"/><path class="cls-2" d="M152.83,278.37h-2.15l-5.09,13.89h1.72l1.37-3.85h6.08l1.35,3.85h1.8ZM149.17,287l2.54-7.2,2.54,7.2h-5.09Z"/><polygon class="cls-2" points="138.86 308.32 138.86 308.32 138.86 308.32 144.65 302.96 142.54 302.96 135.55 309.44 135.55 302.96 133.89 302.96 133.89 316.85 135.55 316.85 135.55 311.38 137.69 309.4 142.93 316.85 142.93 316.85 144.84 316.85 144.84 316.85 140.57 310.76 138.86 308.32"/><polygon class="cls-2" points="168.42 303.02 164.15 314.86 159.89 303.02 157.25 303.02 157.25 316.91 158.91 316.91 158.91 304.78 163.33 316.91 164.97 316.91 169.4 304.78 169.4 316.91 171.06 316.91 171.06 303.02 168.42 303.02"/><path class="cls-2" d="M205.17,278.37H203l-5.09,13.89h1.72L201,288.4h6.08l1.35,3.85h1.8ZM201.51,287l2.54-7.2,2.54,7.2h-5.09Z"/><polygon class="cls-2" points="191.2 308.32 191.2 308.32 191.2 308.32 196.99 302.96 194.88 302.96 187.89 309.44 187.89 302.96 186.23 302.96 186.23 316.85 187.89 316.85 187.89 311.38 190.02 309.4 195.27 316.85 195.27 316.85 197.18 316.85 197.18 316.85 192.91 310.76 191.2 308.32"/><polygon class="cls-2" points="220.75 303.02 216.49 314.86 212.22 303.02 209.58 303.02 209.58 316.91 211.25 316.91 211.25 304.78 215.67 316.91 217.31 316.91 221.73 304.78 221.73 316.91 223.4 316.91 223.4 303.02 220.75 303.02"/><path class="cls-2" d="M257.5,278.37h-2.15l-5.09,13.89H252l1.37-3.85h6.08l1.35,3.85h1.8ZM253.85,287l2.54-7.2,2.54,7.2h-5.09Z"/><polygon class="cls-2" points="243.53 308.32 243.53 308.32 243.53 308.32 249.33 302.96 247.21 302.96 240.23 309.44 240.23 302.96 238.56 302.96 238.56 316.85 240.23 316.85 240.23 311.38 242.36 309.4 247.6 316.85 247.6 316.85 249.52 316.85 249.52 316.85 245.24 310.76 243.53 308.32"/><polygon class="cls-2" points="273.09 303.02 268.83 314.86 264.56 303.02 261.92 303.02 261.92 316.91 263.58 316.91 263.58 304.78 268.01 316.91 269.65 316.91 274.07 304.78 274.07 316.91 275.73 316.91 275.73 303.02 273.09 303.02"/><path class="cls-2" d="M309.84,278.37h-2.15l-5.09,13.89h1.72l1.37-3.85h6.08l1.35,3.85h1.8ZM306.18,287l2.54-7.2,2.54,7.2h-5.09Z"/><polygon class="cls-2" points="295.87 308.32 295.87 308.32 295.87 308.32 301.66 302.96 299.55 302.96 292.57 309.44 292.57 302.96 290.9 302.96 290.9 316.85 292.57 316.85 292.57 311.38 294.7 309.4 299.94 316.85 299.94 316.85 301.86 316.85 301.86 316.85 297.58 310.76 295.87 308.32"/><polygon class="cls-2" points="325.43 303.02 321.17 314.86 316.9 303.02 314.26 303.02 314.26 316.91 315.92 316.91 315.92 304.78 320.34 316.91 321.99 316.91 326.41 304.78 326.41 316.91 328.07 316.91 328.07 303.02 325.43 303.02"/><path class="cls-2" d="M362.18,278.37H360l-5.09,13.89h1.72L358,288.4h6.08l1.35,3.85h1.8ZM358.52,287l2.54-7.2,2.54,7.2h-5.09Z"/><polygon class="cls-2" points="348.21 308.32 348.21 308.32 348.21 308.32 354 302.96 351.89 302.96 344.9 309.44 344.9 302.96 343.24 302.96 343.24 316.85 344.9 316.85 344.9 311.38 347.04 309.4 352.28 316.85 352.28 316.85 354.2 316.85 354.2 316.85 349.92 310.76 348.21 308.32"/><polygon class="cls-2" points="377.77 303.02 373.5 314.86 369.24 303.02 366.6 303.02 366.6 316.91 368.26 316.91 368.26 304.78 372.68 316.91 374.33 316.91 378.75 304.78 378.75 316.91 380.41 316.91 380.41 303.02 377.77 303.02"/><path class="cls-2" d="M414.52,278.37h-2.15l-5.09,13.89H409l1.37-3.85h6.08l1.35,3.85h1.8ZM410.86,287l2.54-7.2,2.54,7.2h-5.09Z"/><polygon class="cls-2" points="400.55 308.32 400.55 308.32 400.55 308.32 406.34 302.96 404.23 302.96 397.24 309.44 397.24 302.96 395.58 302.96 395.58 316.85 397.24 316.85 397.24 311.38 399.38 309.4 404.62 316.85 404.62 316.85 406.54 316.85 406.54 316.85 402.26 310.76 400.55 308.32"/><polygon class="cls-2" points="430.11 303.02 425.84 314.86 421.58 303.02 418.94 303.02 418.94 316.91 420.6 316.91 420.6 304.78 425.02 316.91 426.66 316.91 431.08 304.78 431.08 316.91 432.75 316.91 432.75 303.02 430.11 303.02"/><path class="cls-2" d="M466.86,278.37H464.7l-5.09,13.89h1.72l1.37-3.85h6.08l1.35,3.85h1.8ZM463.2,287l2.54-7.2,2.54,7.2H463.2Z"/><polygon class="cls-2" points="452.89 308.32 452.89 308.32 452.89 308.32 458.68 302.96 456.56 302.96 449.58 309.44 449.58 302.96 447.92 302.96 447.92 316.85 449.58 316.85 449.58 311.38 451.71 309.4 456.96 316.85 456.96 316.85 458.87 316.85 458.87 316.85 454.6 310.76 452.89 308.32"/><polygon class="cls-2" points="482.44 303.02 478.18 314.86 473.92 303.02 471.27 303.02 471.27 316.91 472.94 316.91 472.94 304.78 477.36 316.91 479 316.91 483.42 304.78 483.42 316.91 485.09 316.91 485.09 303.02 482.44 303.02"/><path class="cls-2" d="M519.19,278.37H517L512,292.26h1.72L515,288.4h6.08l1.35,3.85h1.8ZM515.54,287l2.54-7.2,2.54,7.2h-5.09Z"/><polygon class="cls-2" points="505.23 308.32 505.23 308.32 505.23 308.32 511.02 302.96 508.9 302.96 501.92 309.44 501.92 302.96 500.26 302.96 500.26 316.85 501.92 316.85 501.92 311.38 504.05 309.4 509.29 316.85 509.3 316.85 511.21 316.85 511.21 316.85 506.93 310.76 505.23 308.32"/><polygon class="cls-2" points="534.78 303.02 530.52 314.86 526.25 303.02 523.61 303.02 523.61 316.91 525.27 316.91 525.27 304.78 529.7 316.91 531.34 316.91 535.76 304.78 535.76 316.91 537.42 316.91 537.42 303.02 534.78 303.02"/><path class="cls-2" d="M76.79,325.08H74.64L69.56,339h1.72l1.37-3.85h6.08L80.08,339h1.8Zm-3.66,8.61,2.54-7.2,2.54,7.2H73.14Z"/><polygon class="cls-2" points="62.83 355.03 62.82 355.04 62.82 355.03 68.61 349.67 66.5 349.67 59.52 356.15 59.52 349.67 57.85 349.67 57.85 363.56 59.52 363.56 59.52 358.09 61.65 356.11 66.89 363.56 66.89 363.56 68.81 363.56 68.81 363.56 64.53 357.47 62.83 355.03"/><polygon class="cls-2" points="92.38 349.73 88.12 361.57 83.85 349.73 81.21 349.73 81.21 363.62 82.88 363.62 82.88 351.49 87.3 363.62 88.94 363.62 93.36 351.49 93.36 363.62 95.02 363.62 95.02 349.73 92.38 349.73"/><path class="cls-2" d="M129.13,325.08H127L121.89,339h1.72l1.37-3.85h6.08l1.35,3.85h1.8Zm-3.66,8.61,2.54-7.2,2.54,7.2h-5.09Z"/><polygon class="cls-2" points="115.16 355.03 115.16 355.04 115.16 355.03 120.95 349.67 118.84 349.67 111.86 356.15 111.86 349.67 110.19 349.67 110.19 363.56 111.86 363.56 111.86 358.09 113.99 356.11 119.23 363.56 119.23 363.56 121.15 363.56 121.15 363.56 116.87 357.47 115.16 355.03"/><polygon class="cls-2" points="144.72 349.73 140.46 361.57 136.19 349.73 133.55 349.73 133.55 363.62 135.21 363.62 135.21 351.49 139.63 363.62 141.28 363.62 145.7 351.49 145.7 363.62 147.36 363.62 147.36 349.73 144.72 349.73"/><path class="cls-2" d="M181.47,325.08h-2.15L174.23,339H176l1.37-3.85h6.08l1.35,3.85h1.8Zm-3.66,8.61,2.54-7.2,2.54,7.2h-5.09Z"/><polygon class="cls-2" points="167.5 355.03 167.5 355.04 167.5 355.03 173.29 349.67 171.18 349.67 164.19 356.15 164.19 349.67 162.53 349.67 162.53 363.56 164.19 363.56 164.19 358.09 166.33 356.11 171.57 363.56 171.57 363.56 173.49 363.56 173.49 363.56 169.21 357.47 167.5 355.03"/><polygon class="cls-2" points="197.06 349.73 192.79 361.57 188.53 349.73 185.89 349.73 185.89 363.62 187.55 363.62 187.55 351.49 191.97 363.62 193.62 363.62 198.04 351.49 198.04 363.62 199.7 363.62 199.7 349.73 197.06 349.73"/><path class="cls-2" d="M233.81,325.08h-2.15L226.57,339h1.72l1.37-3.85h6.08l1.35,3.85h1.8Zm-3.66,8.61,2.54-7.2,2.54,7.2h-5.09Z"/><polygon class="cls-2" points="219.84 355.03 219.84 355.04 219.84 355.03 225.63 349.67 223.52 349.67 216.53 356.15 216.53 349.67 214.87 349.67 214.87 363.56 216.53 363.56 216.53 358.09 218.66 356.11 223.91 363.56 223.91 363.56 225.82 363.56 225.82 363.56 221.55 357.47 219.84 355.03"/><polygon class="cls-2" points="249.4 349.73 245.13 361.57 240.87 349.73 238.23 349.73 238.23 363.62 239.89 363.62 239.89 351.49 244.31 363.62 245.95 363.62 250.38 351.49 250.38 363.62 252.04 363.62 252.04 349.73 249.4 349.73"/><path class="cls-2" d="M286.15,325.08H284L278.91,339h1.72l1.37-3.85h6.08l1.35,3.85h1.8Zm-3.66,8.61,2.54-7.2,2.54,7.2h-5.09Z"/><polygon class="cls-2" points="272.18 355.03 272.18 355.04 272.18 355.03 277.97 349.67 275.86 349.67 268.87 356.15 268.87 349.67 267.21 349.67 267.21 363.56 268.87 363.56 268.87 358.09 271 356.11 276.25 363.56 276.25 363.56 278.16 363.56 278.16 363.56 273.88 357.47 272.18 355.03"/><polygon class="cls-2" points="301.74 349.73 297.47 361.57 293.2 349.73 290.56 349.73 290.56 363.62 292.23 363.62 292.23 351.49 296.65 363.62 298.29 363.62 302.71 351.49 302.71 363.62 304.38 363.62 304.38 349.73 301.74 349.73"/><path class="cls-2" d="M338.48,325.08h-2.15L331.25,339H333l1.37-3.85h6.08l1.35,3.85h1.8Zm-3.66,8.61,2.54-7.2,2.54,7.2h-5.09Z"/><polygon class="cls-2" points="324.51 355.03 324.51 355.04 324.51 355.03 330.31 349.67 328.19 349.67 321.21 356.15 321.21 349.67 319.55 349.67 319.55 363.56 321.21 363.56 321.21 358.09 323.34 356.11 328.58 363.56 328.58 363.56 330.5 363.56 330.5 363.56 326.22 357.47 324.51 355.03"/><polygon class="cls-2" points="354.07 349.73 349.81 361.57 345.54 349.73 342.9 349.73 342.9 363.62 344.56 363.62 344.56 351.49 348.99 363.62 350.63 363.62 355.05 351.49 355.05 363.62 356.71 363.62 356.71 349.73 354.07 349.73"/><path class="cls-2" d="M390.82,325.08h-2.15L383.58,339h1.72l1.37-3.85h6.08l1.35,3.85h1.8Zm-3.66,8.61,2.54-7.2,2.54,7.2h-5.09Z"/><polygon class="cls-2" points="376.85 355.03 376.85 355.04 376.85 355.03 382.64 349.67 380.53 349.67 373.55 356.15 373.55 349.67 371.88 349.67 371.88 363.56 373.55 363.56 373.55 358.09 375.68 356.11 380.92 363.56 380.92 363.56 382.84 363.56 382.84 363.56 378.56 357.47 376.85 355.03"/><polygon class="cls-2" points="406.41 349.73 402.15 361.57 397.88 349.73 395.24 349.73 395.24 363.62 396.9 363.62 396.9 351.49 401.32 363.62 402.97 363.62 407.39 351.49 407.39 363.62 409.05 363.62 409.05 349.73 406.41 349.73"/><path class="cls-2" d="M443.16,325.08H441L435.92,339h1.72l1.37-3.85h6.08l1.35,3.85h1.8Zm-3.66,8.61,2.54-7.2,2.54,7.2H439.5Z"/><polygon class="cls-2" points="429.19 355.03 429.19 355.04 429.19 355.03 434.98 349.67 432.87 349.67 425.88 356.15 425.88 349.67 424.22 349.67 424.22 363.56 425.88 363.56 425.88 358.09 428.02 356.11 433.26 363.56 433.26 363.56 435.18 363.56 435.18 363.56 430.9 357.47 429.19 355.03"/><polygon class="cls-2" points="458.75 349.73 454.48 361.57 450.22 349.73 447.58 349.73 447.58 363.62 449.24 363.62 449.24 351.49 453.66 363.62 455.31 363.62 459.73 351.49 459.73 363.62 461.39 363.62 461.39 349.73 458.75 349.73"/><path class="cls-2" d="M495.5,325.08h-2.15L488.26,339H490l1.37-3.85h6.08l1.35,3.85h1.8Zm-3.66,8.61,2.54-7.2,2.54,7.2h-5.09Z"/><polygon class="cls-2" points="481.53 355.03 481.53 355.04 481.53 355.03 487.32 349.67 485.21 349.67 478.22 356.15 478.22 349.67 476.56 349.67 476.56 363.56 478.22 363.56 478.22 358.09 480.36 356.11 485.6 363.56 485.6 363.56 487.51 363.56 487.52 363.56 483.24 357.47 481.53 355.03"/><polygon class="cls-2" points="511.09 349.73 506.82 361.57 502.56 349.73 499.92 349.73 499.92 363.62 501.58 363.62 501.58 351.49 506 363.62 507.64 363.62 512.07 351.49 512.07 363.62 513.73 363.62 513.73 349.73 511.09 349.73"/><path class="cls-2" d="M100.49,371.79H98.34l-5.09,13.89H95l1.37-3.85h6.08l1.35,3.85h1.8Zm-3.66,8.61,2.54-7.2,2.54,7.2H96.83Z"/><polygon class="cls-2" points="86.52 401.74 86.52 401.75 86.52 401.74 92.31 396.38 90.2 396.38 83.21 402.86 83.21 396.38 81.55 396.38 81.55 410.27 83.21 410.27 83.21 404.8 85.35 402.82 90.59 410.27 90.59 410.27 92.51 410.27 92.51 410.27 88.23 404.18 86.52 401.74"/><polygon class="cls-2" points="116.08 396.44 111.81 408.28 107.55 396.44 104.91 396.44 104.91 410.33 106.57 410.33 106.57 398.2 110.99 410.33 112.64 410.33 117.06 398.2 117.06 410.33 118.72 410.33 118.72 396.44 116.08 396.44"/><path class="cls-2" d="M152.83,371.79h-2.15l-5.09,13.89h1.72l1.37-3.85h6.08l1.35,3.85h1.8Zm-3.66,8.61,2.54-7.2,2.54,7.2h-5.09Z"/><polygon class="cls-2" points="138.86 401.74 138.86 401.75 138.86 401.74 144.65 396.38 142.54 396.38 135.55 402.86 135.55 396.38 133.89 396.38 133.89 410.27 135.55 410.27 135.55 404.8 137.69 402.82 142.93 410.27 142.93 410.27 144.84 410.27 144.84 410.27 140.57 404.18 138.86 401.74"/><polygon class="cls-2" points="168.42 396.44 164.15 408.28 159.89 396.44 157.25 396.44 157.25 410.33 158.91 410.33 158.91 398.2 163.33 410.33 164.97 410.33 169.4 398.2 169.4 410.33 171.06 410.33 171.06 396.44 168.42 396.44"/><path class="cls-2" d="M205.17,371.79H203l-5.09,13.89h1.72l1.37-3.85h6.08l1.35,3.85h1.8Zm-3.66,8.61,2.54-7.2,2.54,7.2h-5.09Z"/><polygon class="cls-2" points="191.2 401.74 191.2 401.75 191.2 401.74 196.99 396.38 194.88 396.38 187.89 402.86 187.89 396.38 186.23 396.38 186.23 410.27 187.89 410.27 187.89 404.8 190.02 402.82 195.27 410.27 195.27 410.27 197.18 410.27 197.18 410.27 192.91 404.18 191.2 401.74"/><polygon class="cls-2" points="220.75 396.44 216.49 408.28 212.22 396.44 209.58 396.44 209.58 410.33 211.25 410.33 211.25 398.2 215.67 410.33 217.31 410.33 221.73 398.2 221.73 410.33 223.4 410.33 223.4 396.44 220.75 396.44"/><path class="cls-2" d="M257.5,371.79h-2.15l-5.09,13.89H252l1.37-3.85h6.08l1.35,3.85h1.8Zm-3.66,8.61,2.54-7.2,2.54,7.2h-5.09Z"/><polygon class="cls-2" points="243.53 401.74 243.53 401.75 243.53 401.74 249.33 396.38 247.21 396.38 240.23 402.86 240.23 396.38 238.56 396.38 238.56 410.27 240.23 410.27 240.23 404.8 242.36 402.82 247.6 410.27 247.6 410.27 249.52 410.27 249.52 410.27 245.24 404.18 243.53 401.74"/><polygon class="cls-2" points="273.09 396.44 268.83 408.28 264.56 396.44 261.92 396.44 261.92 410.33 263.58 410.33 263.58 398.2 268.01 410.33 269.65 410.33 274.07 398.2 274.07 410.33 275.73 410.33 275.73 396.44 273.09 396.44"/><path class="cls-2" d="M309.84,371.79h-2.15l-5.09,13.89h1.72l1.37-3.85h6.08l1.35,3.85h1.8Zm-3.66,8.61,2.54-7.2,2.54,7.2h-5.09Z"/><polygon class="cls-2" points="295.87 401.74 295.87 401.75 295.87 401.74 301.66 396.38 299.55 396.38 292.57 402.86 292.57 396.38 290.9 396.38 290.9 410.27 292.57 410.27 292.57 404.8 294.7 402.82 299.94 410.27 299.94 410.27 301.86 410.27 301.86 410.27 297.58 404.18 295.87 401.74"/><polygon class="cls-2" points="325.43 396.44 321.17 408.28 316.9 396.44 314.26 396.44 314.26 410.33 315.92 410.33 315.92 398.2 320.34 410.33 321.99 410.33 326.41 398.2 326.41 410.33 328.07 410.33 328.07 396.44 325.43 396.44"/><path class="cls-2" d="M362.18,371.79H360l-5.09,13.89h1.72l1.37-3.85h6.08l1.35,3.85h1.8Zm-3.66,8.61,2.54-7.2,2.54,7.2h-5.09Z"/><polygon class="cls-2" points="348.21 401.74 348.21 401.75 348.21 401.74 354 396.38 351.89 396.38 344.9 402.86 344.9 396.38 343.24 396.38 343.24 410.27 344.9 410.27 344.9 404.8 347.04 402.82 352.28 410.27 352.28 410.27 354.2 410.27 354.2 410.27 349.92 404.18 348.21 401.74"/><polygon class="cls-2" points="377.77 396.44 373.5 408.28 369.24 396.44 366.6 396.44 366.6 410.33 368.26 410.33 368.26 398.2 372.68 410.33 374.33 410.33 378.75 398.2 378.75 410.33 380.41 410.33 380.41 396.44 377.77 396.44"/><path class="cls-2" d="M414.52,371.79h-2.15l-5.09,13.89H409l1.37-3.85h6.08l1.35,3.85h1.8Zm-3.66,8.61,2.54-7.2,2.54,7.2h-5.09Z"/><polygon class="cls-2" points="400.55 401.74 400.55 401.75 400.55 401.74 406.34 396.38 404.23 396.38 397.24 402.86 397.24 396.38 395.58 396.38 395.58 410.27 397.24 410.27 397.24 404.8 399.38 402.82 404.62 410.27 404.62 410.27 406.54 410.27 406.54 410.27 402.26 404.18 400.55 401.74"/><polygon class="cls-2" points="430.11 396.44 425.84 408.28 421.58 396.44 418.94 396.44 418.94 410.33 420.6 410.33 420.6 398.2 425.02 410.33 426.66 410.33 431.08 398.2 431.08 410.33 432.75 410.33 432.75 396.44 430.11 396.44"/><path class="cls-2" d="M466.86,371.79H464.7l-5.09,13.89h1.72l1.37-3.85h6.08l1.35,3.85h1.8Zm-3.66,8.61,2.54-7.2,2.54,7.2H463.2Z"/><polygon class="cls-2" points="452.89 401.74 452.89 401.75 452.89 401.74 458.68 396.38 456.56 396.38 449.58 402.86 449.58 396.38 447.92 396.38 447.92 410.27 449.58 410.27 449.58 404.8 451.71 402.82 456.96 410.27 456.96 410.27 458.87 410.27 458.87 410.27 454.6 404.18 452.89 401.74"/><polygon class="cls-2" points="482.44 396.44 478.18 408.28 473.92 396.44 471.27 396.44 471.27 410.33 472.94 410.33 472.94 398.2 477.36 410.33 479 410.33 483.42 398.2 483.42 410.33 485.09 410.33 485.09 396.44 482.44 396.44"/><path class="cls-2" d="M519.19,371.79H517L512,385.68h1.72l1.37-3.85h6.08l1.35,3.85h1.8Zm-3.66,8.61,2.54-7.2,2.54,7.2h-5.09Z"/><polygon class="cls-2" points="505.23 401.74 505.23 401.75 505.23 401.74 511.02 396.38 508.9 396.38 501.92 402.86 501.92 396.38 500.26 396.38 500.26 410.27 501.92 410.27 501.92 404.8 504.05 402.82 509.29 410.27 509.3 410.27 511.21 410.27 511.21 410.27 506.93 404.18 505.23 401.74"/><polygon class="cls-2" points="534.78 396.44 530.52 408.28 526.25 396.44 523.61 396.44 523.61 410.33 525.27 410.33 525.27 398.2 529.7 410.33 531.34 410.33 535.76 398.2 535.76 410.33 537.42 410.33 537.42 396.44 534.78 396.44"/><path class="cls-2" d="M76.79,418.5H74.64l-5.09,13.89h1.72l1.37-3.85h6.08l1.35,3.85h1.8Zm-3.66,8.61,2.54-7.2,2.54,7.2H73.14Z"/><polygon class="cls-2" points="62.83 448.45 62.82 448.45 62.82 448.45 68.61 443.09 66.5 443.09 59.52 449.57 59.52 443.09 57.85 443.09 57.85 456.99 59.52 456.99 59.52 451.51 61.65 449.53 66.89 456.99 66.89 456.99 68.81 456.99 68.81 456.99 64.53 450.89 62.83 448.45"/><polygon class="cls-2" points="92.38 443.15 88.12 454.99 83.85 443.15 81.21 443.15 81.21 457.04 82.88 457.04 82.88 444.91 87.3 457.04 88.94 457.04 93.36 444.91 93.36 457.04 95.02 457.04 95.02 443.15 92.38 443.15"/><path class="cls-2" d="M129.13,418.5H127l-5.09,13.89h1.72l1.37-3.85h6.08l1.35,3.85h1.8Zm-3.66,8.61,2.54-7.2,2.54,7.2h-5.09Z"/><polygon class="cls-2" points="115.16 448.45 115.16 448.45 115.16 448.45 120.95 443.09 118.84 443.09 111.86 449.57 111.86 443.09 110.19 443.09 110.19 456.99 111.86 456.99 111.86 451.51 113.99 449.53 119.23 456.99 119.23 456.99 121.15 456.99 121.15 456.99 116.87 450.89 115.16 448.45"/><polygon class="cls-2" points="144.72 443.15 140.46 454.99 136.19 443.15 133.55 443.15 133.55 457.04 135.21 457.04 135.21 444.91 139.63 457.04 141.28 457.04 145.7 444.91 145.7 457.04 147.36 457.04 147.36 443.15 144.72 443.15"/><path class="cls-2" d="M181.47,418.5h-2.15l-5.09,13.89H176l1.37-3.85h6.08l1.35,3.85h1.8Zm-3.66,8.61,2.54-7.2,2.54,7.2h-5.09Z"/><polygon class="cls-2" points="167.5 448.45 167.5 448.45 167.5 448.45 173.29 443.09 171.18 443.09 164.19 449.57 164.19 443.09 162.53 443.09 162.53 456.99 164.19 456.99 164.19 451.51 166.33 449.53 171.57 456.99 171.57 456.99 173.49 456.99 173.49 456.99 169.21 450.89 167.5 448.45"/><polygon class="cls-2" points="197.06 443.15 192.79 454.99 188.53 443.15 185.89 443.15 185.89 457.04 187.55 457.04 187.55 444.91 191.97 457.04 193.62 457.04 198.04 444.91 198.04 457.04 199.7 457.04 199.7 443.15 197.06 443.15"/><path class="cls-2" d="M233.81,418.5h-2.15l-5.09,13.89h1.72l1.37-3.85h6.08l1.35,3.85h1.8Zm-3.66,8.61,2.54-7.2,2.54,7.2h-5.09Z"/><polygon class="cls-2" points="219.84 448.45 219.84 448.45 219.84 448.45 225.63 443.09 223.52 443.09 216.53 449.57 216.53 443.09 214.87 443.09 214.87 456.99 216.53 456.99 216.53 451.51 218.66 449.53 223.91 456.99 223.91 456.99 225.82 456.99 225.82 456.99 221.55 450.89 219.84 448.45"/><polygon class="cls-2" points="249.4 443.15 245.13 454.99 240.87 443.15 238.23 443.15 238.23 457.04 239.89 457.04 239.89 444.91 244.31 457.04 245.95 457.04 250.38 444.91 250.38 457.04 252.04 457.04 252.04 443.15 249.4 443.15"/><path class="cls-2" d="M286.15,418.5H284l-5.09,13.89h1.72l1.37-3.85h6.08l1.35,3.85h1.8Zm-3.66,8.61,2.54-7.2,2.54,7.2h-5.09Z"/><polygon class="cls-2" points="272.18 448.45 272.18 448.45 272.18 448.45 277.97 443.09 275.86 443.09 268.87 449.57 268.87 443.09 267.21 443.09 267.21 456.99 268.87 456.99 268.87 451.51 271 449.53 276.25 456.99 276.25 456.99 278.16 456.99 278.16 456.99 273.88 450.89 272.18 448.45"/><polygon class="cls-2" points="301.74 443.15 297.47 454.99 293.2 443.15 290.56 443.15 290.56 457.04 292.23 457.04 292.23 444.91 296.65 457.04 298.29 457.04 302.71 444.91 302.71 457.04 304.38 457.04 304.38 443.15 301.74 443.15"/><path class="cls-2" d="M338.48,418.5h-2.15l-5.09,13.89H333l1.37-3.85h6.08l1.35,3.85h1.8Zm-3.66,8.61,2.54-7.2,2.54,7.2h-5.09Z"/><polygon class="cls-2" points="324.51 448.45 324.51 448.45 324.51 448.45 330.31 443.09 328.19 443.09 321.21 449.57 321.21 443.09 319.55 443.09 319.55 456.99 321.21 456.99 321.21 451.51 323.34 449.53 328.58 456.99 328.58 456.99 330.5 456.99 330.5 456.99 326.22 450.89 324.51 448.45"/><polygon class="cls-2" points="354.07 443.15 349.81 454.99 345.54 443.15 342.9 443.15 342.9 457.04 344.56 457.04 344.56 444.91 348.99 457.04 350.63 457.04 355.05 444.91 355.05 457.04 356.71 457.04 356.71 443.15 354.07 443.15"/><path class="cls-2" d="M390.82,418.5h-2.15l-5.09,13.89h1.72l1.37-3.85h6.08l1.35,3.85h1.8Zm-3.66,8.61,2.54-7.2,2.54,7.2h-5.09Z"/><polygon class="cls-2" points="376.85 448.45 376.85 448.45 376.85 448.45 382.64 443.09 380.53 443.09 373.55 449.57 373.55 443.09 371.88 443.09 371.88 456.99 373.55 456.99 373.55 451.51 375.68 449.53 380.92 456.99 380.92 456.99 382.84 456.99 382.84 456.99 378.56 450.89 376.85 448.45"/><polygon class="cls-2" points="406.41 443.15 402.15 454.99 397.88 443.15 395.24 443.15 395.24 457.04 396.9 457.04 396.9 444.91 401.32 457.04 402.97 457.04 407.39 444.91 407.39 457.04 409.05 457.04 409.05 443.15 406.41 443.15"/><path class="cls-2" d="M443.16,418.5H441l-5.09,13.89h1.72l1.37-3.85h6.08l1.35,3.85h1.8Zm-3.66,8.61,2.54-7.2,2.54,7.2H439.5Z"/><polygon class="cls-2" points="429.19 448.45 429.19 448.45 429.19 448.45 434.98 443.09 432.87 443.09 425.88 449.57 425.88 443.09 424.22 443.09 424.22 456.99 425.88 456.99 425.88 451.51 428.02 449.53 433.26 456.99 433.26 456.99 435.18 456.99 435.18 456.99 430.9 450.89 429.19 448.45"/><polygon class="cls-2" points="458.75 443.15 454.48 454.99 450.22 443.15 447.58 443.15 447.58 457.04 449.24 457.04 449.24 444.91 453.66 457.04 455.31 457.04 459.73 444.91 459.73 457.04 461.39 457.04 461.39 443.15 458.75 443.15"/><path class="cls-2" d="M495.5,418.5h-2.15l-5.09,13.89H490l1.37-3.85h6.08l1.35,3.85h1.8Zm-3.66,8.61,2.54-7.2,2.54,7.2h-5.09Z"/><polygon class="cls-2" points="481.53 448.45 481.53 448.45 481.53 448.45 487.32 443.09 485.21 443.09 478.22 449.57 478.22 443.09 476.56 443.09 476.56 456.99 478.22 456.99 478.22 451.51 480.36 449.53 485.6 456.99 485.6 456.99 487.51 456.99 487.52 456.99 483.24 450.89 481.53 448.45"/><polygon class="cls-2" points="511.09 443.15 506.82 454.99 502.56 443.15 499.92 443.15 499.92 457.04 501.58 457.04 501.58 444.91 506 457.04 507.64 457.04 512.07 444.91 512.07 457.04 513.73 457.04 513.73 443.15 511.09 443.15"/><path class="cls-2" d="M100.49,465.21H98.34L93.25,479.1H95l1.37-3.85h6.08l1.35,3.85h1.8Zm-3.66,8.61,2.54-7.2,2.54,7.2H96.83Z"/><polygon class="cls-2" points="86.52 495.17 86.52 495.17 86.52 495.17 92.31 489.8 90.2 489.8 83.21 496.28 83.21 489.8 81.55 489.8 81.55 503.69 83.21 503.69 83.21 498.22 85.35 496.24 90.59 503.69 90.59 503.69 92.51 503.69 92.51 503.69 88.23 497.6 86.52 495.17"/><polygon class="cls-2" points="116.08 489.86 111.81 501.7 107.55 489.86 104.91 489.86 104.91 503.75 106.57 503.75 106.57 491.62 110.99 503.75 112.64 503.75 117.06 491.62 117.06 503.75 118.72 503.75 118.72 489.86 116.08 489.86"/><path class="cls-2" d="M152.83,465.21h-2.15l-5.09,13.89h1.72l1.37-3.85h6.08l1.35,3.85h1.8Zm-3.66,8.61,2.54-7.2,2.54,7.2h-5.09Z"/><polygon class="cls-2" points="138.86 495.17 138.86 495.17 138.86 495.17 144.65 489.8 142.54 489.8 135.55 496.28 135.55 489.8 133.89 489.8 133.89 503.69 135.55 503.69 135.55 498.22 137.69 496.24 142.93 503.69 142.93 503.69 144.84 503.69 144.84 503.69 140.57 497.6 138.86 495.17"/><polygon class="cls-2" points="168.42 489.86 164.15 501.7 159.89 489.86 157.25 489.86 157.25 503.75 158.91 503.75 158.91 491.62 163.33 503.75 164.97 503.75 169.4 491.62 169.4 503.75 171.06 503.75 171.06 489.86 168.42 489.86"/><path class="cls-2" d="M205.17,465.21H203l-5.09,13.89h1.72l1.37-3.85h6.08l1.35,3.85h1.8Zm-3.66,8.61,2.54-7.2,2.54,7.2h-5.09Z"/><polygon class="cls-2" points="191.2 495.17 191.2 495.17 191.2 495.17 196.99 489.8 194.88 489.8 187.89 496.28 187.89 489.8 186.23 489.8 186.23 503.69 187.89 503.69 187.89 498.22 190.02 496.24 195.27 503.69 195.27 503.69 197.18 503.69 197.18 503.69 192.91 497.6 191.2 495.17"/><polygon class="cls-2" points="220.75 489.86 216.49 501.7 212.22 489.86 209.58 489.86 209.58 503.75 211.25 503.75 211.25 491.62 215.67 503.75 217.31 503.75 221.73 491.62 221.73 503.75 223.4 503.75 223.4 489.86 220.75 489.86"/><path class="cls-2" d="M257.5,465.21h-2.15l-5.09,13.89H252l1.37-3.85h6.08l1.35,3.85h1.8Zm-3.66,8.61,2.54-7.2,2.54,7.2h-5.09Z"/><polygon class="cls-2" points="243.53 495.17 243.53 495.17 243.53 495.17 249.33 489.8 247.21 489.8 240.23 496.28 240.23 489.8 238.56 489.8 238.56 503.69 240.23 503.69 240.23 498.22 242.36 496.24 247.6 503.69 247.6 503.69 249.52 503.69 249.52 503.69 245.24 497.6 243.53 495.17"/><polygon class="cls-2" points="273.09 489.86 268.83 501.7 264.56 489.86 261.92 489.86 261.92 503.75 263.58 503.75 263.58 491.62 268.01 503.75 269.65 503.75 274.07 491.62 274.07 503.75 275.73 503.75 275.73 489.86 273.09 489.86"/><path class="cls-2" d="M309.84,465.21h-2.15L302.6,479.1h1.72l1.37-3.85h6.08l1.35,3.85h1.8Zm-3.66,8.61,2.54-7.2,2.54,7.2h-5.09Z"/><polygon class="cls-2" points="295.87 495.17 295.87 495.17 295.87 495.17 301.66 489.8 299.55 489.8 292.57 496.28 292.57 489.8 290.9 489.8 290.9 503.69 292.57 503.69 292.57 498.22 294.7 496.24 299.94 503.69 299.94 503.69 301.86 503.69 301.86 503.69 297.58 497.6 295.87 495.17"/><polygon class="cls-2" points="325.43 489.86 321.17 501.7 316.9 489.86 314.26 489.86 314.26 503.75 315.92 503.75 315.92 491.62 320.34 503.75 321.99 503.75 326.41 491.62 326.41 503.75 328.07 503.75 328.07 489.86 325.43 489.86"/><path class="cls-2" d="M362.18,465.21H360l-5.09,13.89h1.72l1.37-3.85h6.08l1.35,3.85h1.8Zm-3.66,8.61,2.54-7.2,2.54,7.2h-5.09Z"/><polygon class="cls-2" points="348.21 495.17 348.21 495.17 348.21 495.17 354 489.8 351.89 489.8 344.9 496.28 344.9 489.8 343.24 489.8 343.24 503.69 344.9 503.69 344.9 498.22 347.04 496.24 352.28 503.69 352.28 503.69 354.2 503.69 354.2 503.69 349.92 497.6 348.21 495.17"/><polygon class="cls-2" points="377.77 489.86 373.5 501.7 369.24 489.86 366.6 489.86 366.6 503.75 368.26 503.75 368.26 491.62 372.68 503.75 374.33 503.75 378.75 491.62 378.75 503.75 380.41 503.75 380.41 489.86 377.77 489.86"/><path class="cls-2" d="M414.52,465.21h-2.15l-5.09,13.89H409l1.37-3.85h6.08l1.35,3.85h1.8Zm-3.66,8.61,2.54-7.2,2.54,7.2h-5.09Z"/><polygon class="cls-2" points="400.55 495.17 400.55 495.17 400.55 495.17 406.34 489.8 404.23 489.8 397.24 496.28 397.24 489.8 395.58 489.8 395.58 503.69 397.24 503.69 397.24 498.22 399.38 496.24 404.62 503.69 404.62 503.69 406.54 503.69 406.54 503.69 402.26 497.6 400.55 495.17"/><polygon class="cls-2" points="430.11 489.86 425.84 501.7 421.58 489.86 418.94 489.86 418.94 503.75 420.6 503.75 420.6 491.62 425.02 503.75 426.66 503.75 431.08 491.62 431.08 503.75 432.75 503.75 432.75 489.86 430.11 489.86"/><path class="cls-2" d="M466.86,465.21H464.7l-5.09,13.89h1.72l1.37-3.85h6.08l1.35,3.85h1.8Zm-3.66,8.61,2.54-7.2,2.54,7.2H463.2Z"/><polygon class="cls-2" points="452.89 495.17 452.89 495.17 452.89 495.17 458.68 489.8 456.56 489.8 449.58 496.28 449.58 489.8 447.92 489.8 447.92 503.69 449.58 503.69 449.58 498.22 451.71 496.24 456.96 503.69 456.96 503.69 458.87 503.69 458.87 503.69 454.6 497.6 452.89 495.17"/><polygon class="cls-2" points="482.44 489.86 478.18 501.7 473.92 489.86 471.27 489.86 471.27 503.75 472.94 503.75 472.94 491.62 477.36 503.75 479 503.75 483.42 491.62 483.42 503.75 485.09 503.75 485.09 489.86 482.44 489.86"/><path class="cls-2" d="M519.19,465.21H517L512,479.1h1.72l1.37-3.85h6.08l1.35,3.85h1.8Zm-3.66,8.61,2.54-7.2,2.54,7.2h-5.09Z"/><polygon class="cls-2" points="505.23 495.17 505.23 495.17 505.23 495.17 511.02 489.8 508.9 489.8 501.92 496.28 501.92 489.8 500.26 489.8 500.26 503.69 501.92 503.69 501.92 498.22 504.05 496.24 509.29 503.69 509.3 503.69 511.21 503.69 511.21 503.69 506.93 497.6 505.23 495.17"/><polygon class="cls-2" points="534.78 489.86 530.52 501.7 526.25 489.86 523.61 489.86 523.61 503.75 525.27 503.75 525.27 491.62 529.7 503.75 531.34 503.75 535.76 491.62 535.76 503.75 537.42 503.75 537.42 489.86 534.78 489.86"/></svg>