<svg id="Capa_1" data-name="Capa 1" xmlns="http://www.w3.org/2000/svg" viewBox="100 100 395 395"><defs><style>.cls-2{fill:#d6d193;}</style></defs><title>Recuros AKM</title><path class="cls-2" d="M306.28,254.45l4.83,13.78h6.44l-18.2-49.69h-7.7l-18.2,49.69h6.16l4.9-13.78h21.76Zm-10.92-30.86,9.1,25.75h-18.2Z"/><polygon class="cls-2" points="237.56 336.62 245.19 329.56 263.94 356.22 263.94 356.22 270.8 356.22 270.8 356.22 255.49 334.41 249.38 325.71 249.38 325.71 249.38 325.71 270.1 306.53 262.54 306.53 237.56 329.69 237.56 306.53 231.61 306.53 231.61 356.22 237.56 356.22 237.56 336.62"/><polygon class="cls-2" points="364.56 356.43 364.56 306.75 355.11 306.75 339.86 349.08 324.6 306.75 315.15 306.75 315.15 356.43 321.1 356.43 321.1 313.04 336.92 356.43 342.8 356.43 358.61 313.04 358.61 356.43 364.56 356.43"/><path class="cls-2" d="M324,153.12l7.15,1.46L332,160l2.49,0.51-3.16-18.25-2.48-.51-10,15.56,2.3,0.47Zm5.57-9h0l1.21,8.46-5.73-1.17Z"/><polygon class="cls-2" points="339.1 155.75 342.65 154.06 345.96 164.25 348.73 165.13 344.62 153.03 353.65 148.59 350.82 147.69 339.88 153.26 342.48 145.06 340.29 144.37 335.09 160.81 337.28 161.51 339.1 155.75"/><polygon class="cls-2" points="351.42 166.28 357.39 153.23 357.44 153.25 356.36 168.54 358.14 169.35 369.01 158.55 369.06 158.57 363.08 171.62 365.06 172.53 372.24 156.84 369.38 155.53 358.38 166.44 359.48 151 356.62 149.69 349.44 165.37 351.42 166.28"/><path class="cls-2" d="M372.78,177.13l4.5-3.23,6.05,4.08L382,183.34l2.1,1.42,4-18.07-2.1-1.42-15.21,10.56Zm13.1-9.47,0,0L383.81,176,379,172.71Z"/><path class="cls-2" d="M385.87,186.41l3.45-4.36a8.57,8.57,0,0,1,1.51-1.53,4.1,4.1,0,0,1,1.59-.76,3.32,3.32,0,0,1,1.71.09,5.81,5.81,0,0,1,1.86,1l1.35-1.71a4.6,4.6,0,0,0-2.58-1.18,5.54,5.54,0,0,0-2.83.62l0,0,1.64-2.07-1.52-1.2-7.75,9.8Z"/><path class="cls-2" d="M393.37,184.23a8.59,8.59,0,0,0-1.42,2.1,6.22,6.22,0,0,0-.6,2.26,5.17,5.17,0,0,0,.36,2.26,5.62,5.62,0,0,0,1.51,2.09,6.09,6.09,0,0,0,2.08,1.27,3,3,0,0,0,2.19,0l0,0L393.17,199l1.52,1.38L406.3,187.6l-1.52-1.38-1.12,1.23,0,0a3.33,3.33,0,0,0,0-1.25,4.83,4.83,0,0,0-.37-1.15,5.32,5.32,0,0,0-.6-1,6,6,0,0,0-.7-0.77,5.7,5.7,0,0,0-2.2-1.3,5.16,5.16,0,0,0-2.27-.17,5.91,5.91,0,0,0-2.18.81,8.84,8.84,0,0,0-2,1.62m4.36-.34a3.29,3.29,0,0,1,1.59,0,3.54,3.54,0,0,1,1.58.88,3.8,3.8,0,0,1,1.07,1.51,3.52,3.52,0,0,1,.2,1.6,4.41,4.41,0,0,1-.51,1.58,7.32,7.32,0,0,1-2.34,2.59,4.49,4.49,0,0,1-1.51.67,3.55,3.55,0,0,1-1.6,0,3.51,3.51,0,0,1-1.58-.88,3.67,3.67,0,0,1-1-1.45,3.41,3.41,0,0,1-.19-1.58,4.58,4.58,0,0,1,.48-1.57,6.34,6.34,0,0,1,1-1.41,8.16,8.16,0,0,1,1.35-1.19,4.71,4.71,0,0,1,1.51-.72"/><path class="cls-2" d="M401.38,196.92a3.5,3.5,0,0,0-.58,1.5A3.27,3.27,0,0,0,401,200a5.63,5.63,0,0,0,1.15,1.73,5,5,0,0,0,2,1.39,4.19,4.19,0,0,0,2.38.08l0,0-1.46,1.34,1.31,1.42,9.2-8.45-1.39-1.51-5.2,4.77a5,5,0,0,1-1.3.88,3.54,3.54,0,0,1-1.38.33,3,3,0,0,1-1.38-.29,4.15,4.15,0,0,1-1.32-1,2.51,2.51,0,0,1-.76-1.83,2.48,2.48,0,0,1,.9-1.74l6.23-5.72L408.66,190l-6.05,5.55a7.73,7.73,0,0,0-1.22,1.4"/><rect class="cls-2" x="419.7" y="197.58" width="2.51" height="2.05" transform="translate(-30.9 310.29) rotate(-39.14)"/><rect class="cls-2" x="407.15" y="203.73" width="12.49" height="2.05" transform="translate(-36.51 306.76) rotate(-39.12)"/><path class="cls-2" d="M419.9,202.84l-1.45,1.09,1.27,1.7-6.36,4.76a4.73,4.73,0,0,0-1,1,1.7,1.7,0,0,0-.35.91,2,2,0,0,0,.23,1,7.46,7.46,0,0,0,.73,1.16l0.94,1.26,1.45-1.09-0.56-.75a6.54,6.54,0,0,1-.44-0.65,1,1,0,0,1-.16-0.47,0.6,0.6,0,0,1,.13-0.39,2.23,2.23,0,0,1,.43-0.4l6.21-4.65,1.49,2,1.45-1.09-1.49-2,3-2.25-1.23-1.64-3,2.25Z"/><path class="cls-2" d="M422.08,211.73a7.48,7.48,0,0,0-2.42,1.06,9.93,9.93,0,0,0-2,1.79,5.75,5.75,0,0,0-1.13,2.07,5.13,5.13,0,0,0-.13,2.29,6.45,6.45,0,0,0,1,2.44,5.68,5.68,0,0,0,2.82,2.38,5,5,0,0,0,3.64-.21l-1.11-1.7a2.92,2.92,0,0,1-2.14.08,3.55,3.55,0,0,1-1.67-1.46,4.23,4.23,0,0,1-.68-1.66,3.46,3.46,0,0,1,.09-1.53,3.52,3.52,0,0,1,.71-1.3,5,5,0,0,1,1.2-1l5.1,7.84a10,10,0,0,0,1.89-1.48,6.92,6.92,0,0,0,1.44-2,5.5,5.5,0,0,0,.51-2.43,5.13,5.13,0,0,0-.93-2.69,5.66,5.66,0,0,0-1.69-1.71,5.52,5.52,0,0,0-2.15-.82,6.2,6.2,0,0,0-2.39.1m4.64,3.32a3.49,3.49,0,0,1,0,3.92,4.24,4.24,0,0,1-1,1l-3.91-6a4.32,4.32,0,0,1,1.31-.48,3.67,3.67,0,0,1,1.34,0,3.32,3.32,0,0,1,1.24.51,3.57,3.57,0,0,1,1,1.05"/><path class="cls-2" d="M426.29,223.44A8.42,8.42,0,0,0,424.2,225a5.65,5.65,0,0,0-1.25,1.93,4.89,4.89,0,0,0-.28,2.24,6.51,6.51,0,0,0,.79,2.44,5.42,5.42,0,0,0,2.89,2.74,5.75,5.75,0,0,0,4-.17l-1-1.85a3.61,3.61,0,0,1-2.48.13,3.35,3.35,0,0,1-1.83-1.72,3.4,3.4,0,0,1-.45-1.65,3.23,3.23,0,0,1,.37-1.49,4.53,4.53,0,0,1,1-1.26,7,7,0,0,1,1.39-1,8.41,8.41,0,0,1,1.7-.69,4.55,4.55,0,0,1,1.68-.17,3.31,3.31,0,0,1,1.52.54,3.84,3.84,0,0,1,1.24,1.44,2.88,2.88,0,0,1-.73,3.9l1,1.87a4.93,4.93,0,0,0,1.42-1.42,4.28,4.28,0,0,0,.63-1.67,4.91,4.91,0,0,0-.08-1.82,7.59,7.59,0,0,0-.72-1.88,6,6,0,0,0-1.68-2,5.14,5.14,0,0,0-2.13-1,6.08,6.08,0,0,0-2.39,0,9.12,9.12,0,0,0-2.48.92"/><path class="cls-2" d="M429.63,237.23a4.72,4.72,0,0,0-1.21.73,1.69,1.69,0,0,0-.53.81,2,2,0,0,0,0,1,7.23,7.23,0,0,0,.46,1.29l0.65,1.43,1.65-.75-0.39-.86a7,7,0,0,1-.29-0.73,1,1,0,0,1-.05-0.49,0.6,0.6,0,0,1,.21-0.35,2.27,2.27,0,0,1,.5-0.3l7.06-3.2,1,2.26,1.65-.75-1-2.27,3.41-1.55-0.85-1.87-3.41,1.55-0.88-1.94L436,232l0.88,1.94Z"/><path class="cls-2" d="M436.08,250a3.53,3.53,0,0,1-1.41-.21,3.08,3.08,0,0,1-1.17-.79,4.18,4.18,0,0,1-.84-1.43,2.51,2.51,0,0,1,0-2,2.47,2.47,0,0,1,1.48-1.28l7.92-3-0.72-1.92-7.69,2.88a7.74,7.74,0,0,0-1.66.84,3.48,3.48,0,0,0-1.1,1.17,3.26,3.26,0,0,0-.41,1.57,5.59,5.59,0,0,0,.41,2,5,5,0,0,0,1.35,2,4.19,4.19,0,0,0,2.18,1l0,0-1.85.69,0.68,1.81,11.7-4.38-0.72-1.92-6.61,2.47a5,5,0,0,1-1.54.33"/><path class="cls-2" d="M434.41,257.45l5.33-1.58a8.49,8.49,0,0,1,2.12-.38,4.11,4.11,0,0,1,1.74.29,3.32,3.32,0,0,1,1.35,1.06,5.82,5.82,0,0,1,.92,1.92l2.08-.62a4.62,4.62,0,0,0-1.43-2.45,5.58,5.58,0,0,0-2.68-1.12l0,0,2.53-.75-0.55-1.85-12,3.55Z"/><path class="cls-2" d="M446.27,260.4a4.42,4.42,0,0,0-2,0l0.45,2a2.1,2.1,0,0,1,2,.51,4.37,4.37,0,0,1,1,2,6.86,6.86,0,0,1,.14,1,2.66,2.66,0,0,1-.09.94,1.74,1.74,0,0,1-.47.77,2,2,0,0,1-1,.48,1.11,1.11,0,0,1-.93-0.14,2.26,2.26,0,0,1-.65-0.8,8.83,8.83,0,0,1-.53-1.26q-0.25-.72-0.6-1.51t-0.69-1.44a4.39,4.39,0,0,0-.92-1.18,3.15,3.15,0,0,0-1.28-.69,3.66,3.66,0,0,0-1.78,0,3.62,3.62,0,0,0-1.5.67,2.9,2.9,0,0,0-.86,1.09,3.76,3.76,0,0,0-.3,1.42,6.8,6.8,0,0,0,1.13,3.88,4.93,4.93,0,0,0,1.86,1.6,1.94,1.94,0,0,0-1.32.78,1.76,1.76,0,0,0-.16,1.34,2.89,2.89,0,0,0,.63,1.37l1.56-.35a2.47,2.47,0,0,1-.23-0.59,0.5,0.5,0,0,1,.21-0.63,4.65,4.65,0,0,1,1-.32l6.26-1.4a3.35,3.35,0,0,0,1.63-.78,2.88,2.88,0,0,0,.79-1.29,4.38,4.38,0,0,0,.15-1.58,11.73,11.73,0,0,0-.25-1.67,8.65,8.65,0,0,0-.65-1.9,4.88,4.88,0,0,0-1.06-1.46,3.65,3.65,0,0,0-1.51-.85M441.84,269a2.29,2.29,0,0,1-1,0,2.74,2.74,0,0,1-1-.46,3.66,3.66,0,0,1-.94-1,4.9,4.9,0,0,1-.65-1.64,4.16,4.16,0,0,1-.11-0.92,2.25,2.25,0,0,1,.14-0.81,1.7,1.7,0,0,1,.44-0.64,1.65,1.65,0,0,1,.79-0.39,1.91,1.91,0,0,1,1.26.08,2.29,2.29,0,0,1,.87.73,5.17,5.17,0,0,1,.61,1.15q0.26,0.66.49,1.31t0.5,1.24a2.59,2.59,0,0,0,.63.9Z"/><polygon class="cls-2" points="438.86 279.95 457.58 285.07 457.39 283.32 438.67 278.23 438.86 279.95"/><path class="cls-2" d="M452.21,294.41a3.66,3.66,0,0,0-1.31-1.14,4.43,4.43,0,0,0-2-.45l0,2.05a2.1,2.1,0,0,1,1.89.91,4.34,4.34,0,0,1,.53,2.17,6.74,6.74,0,0,1-.06,1,2.63,2.63,0,0,1-.27.9,1.75,1.75,0,0,1-.62.66,2,2,0,0,1-1.08.27,1.12,1.12,0,0,1-.89-0.32,2.24,2.24,0,0,1-.47-0.91,9,9,0,0,1-.26-1.34q-0.1-.76-0.28-1.6c-0.11-.53-0.23-1-0.39-1.55a4.37,4.37,0,0,0-.66-1.34,3.17,3.17,0,0,0-1.12-.94,3.68,3.68,0,0,0-1.74-.33,3.63,3.63,0,0,0-1.6.35,2.9,2.9,0,0,0-1.06.9,3.73,3.73,0,0,0-.58,1.33,6.82,6.82,0,0,0,.32,4,4.91,4.91,0,0,0,1.49,1.94,1.94,1.94,0,0,0-1.45.49,1.76,1.76,0,0,0-.43,1.28,2.92,2.92,0,0,0,.34,1.47l1.59,0a2.56,2.56,0,0,1-.11-0.63,0.5,0.5,0,0,1,.33-0.57,4.86,4.86,0,0,1,1.06-.1l6.41-.1a3.36,3.36,0,0,0,1.75-.44,2.91,2.91,0,0,0,1-1.1,4.41,4.41,0,0,0,.47-1.52,11.77,11.77,0,0,0,.09-1.68,8.86,8.86,0,0,0-.25-2,4.87,4.87,0,0,0-.74-1.64m-7.39,6.4a2.28,2.28,0,0,1-.93-0.2,2.74,2.74,0,0,1-.93-0.66,3.65,3.65,0,0,1-.72-1.17,4.89,4.89,0,0,1-.31-1.73,4.21,4.21,0,0,1,.08-0.92,2.24,2.24,0,0,1,.3-0.77,1.72,1.72,0,0,1,.56-0.54,1.65,1.65,0,0,1,.85-0.22,1.9,1.9,0,0,1,1.22.33,2.28,2.28,0,0,1,.7.9,5.18,5.18,0,0,1,.37,1.25c0.08,0.47.15,0.93,0.21,1.38s0.14,0.9.24,1.31a2.57,2.57,0,0,0,.44,1Z"/><path class="cls-2" d="M452.62,308l0.12-1.93-12.46-.8-0.13,2,5.55,0.36a8.54,8.54,0,0,1,2.12.38,4.09,4.09,0,0,1,1.53.87,3.31,3.31,0,0,1,.9,1.46,5.81,5.81,0,0,1,.2,2.12l2.17,0.14a4.63,4.63,0,0,0-.5-2.79,5.58,5.58,0,0,0-2.12-2v0Z"/><path class="cls-2" d="M450.56,314.18a5.88,5.88,0,0,0-1.9-1.33,8.78,8.78,0,0,0-2.45-.68,8.58,8.58,0,0,0-2.54,0,6.23,6.23,0,0,0-2.2.79,5.26,5.26,0,0,0-1.65,1.58A5.64,5.64,0,0,0,439,317a6.06,6.06,0,0,0,.14,2.43,3,3,0,0,0,1.27,1.78v0L434,320.4l-0.27,2,17.1,2.29,0.27-2-1.65-.22v0a3.34,3.34,0,0,0,1-.7,4.7,4.7,0,0,0,.74-1,5.36,5.36,0,0,0,.47-1.06,6.25,6.25,0,0,0,.23-1,5.71,5.71,0,0,0-.18-2.55,5.13,5.13,0,0,0-1.15-2m-0.49,4.48a3.78,3.78,0,0,1-.64,1.74,3.52,3.52,0,0,1-1.2,1.07,4.41,4.41,0,0,1-1.59.48,7.14,7.14,0,0,1-1.79,0,7.26,7.26,0,0,1-1.67-.43,4.49,4.49,0,0,1-1.41-.86,3.4,3.4,0,0,1-1.08-3.12,3.7,3.7,0,0,1,.61-1.66,3.43,3.43,0,0,1,1.19-1.06,4.59,4.59,0,0,1,1.57-.5,6.43,6.43,0,0,1,1.72,0,8.22,8.22,0,0,1,1.74.43,4.75,4.75,0,0,1,1.45.83,3.29,3.29,0,0,1,.92,1.29,3.53,3.53,0,0,1,.17,1.8"/><path class="cls-2" d="M440.33,326a3.5,3.5,0,0,0-1.56.38,3.28,3.28,0,0,0-1.2,1.09,5.58,5.58,0,0,0-.77,1.93,5,5,0,0,0,0,2.45,4.19,4.19,0,0,0,1.29,2v0l-1.93-.44-0.43,1.89,12.18,2.78,0.46-2-6.88-1.57A5,5,0,0,1,440,334a3.53,3.53,0,0,1-1.06-.95,3.07,3.07,0,0,1-.55-1.3,4.18,4.18,0,0,1,.08-1.65,2.51,2.51,0,0,1,1.07-1.66,2.48,2.48,0,0,1,1.94-.25l8.24,1.88,0.46-2-8-1.83a7.73,7.73,0,0,0-1.85-.21"/><path class="cls-2" d="M445.25,341.67a6.22,6.22,0,0,0-1.58-1.79,7.5,7.5,0,0,0-2.35-1.21,10,10,0,0,0-2.64-.4,5.71,5.71,0,0,0-2.32.43A5.12,5.12,0,0,0,434.5,340a6.43,6.43,0,0,0-1.26,2.33,5.67,5.67,0,0,0-.07,3.68,5,5,0,0,0,2.46,2.69l0.62-1.93a2.91,2.91,0,0,1-1.41-1.61,3.55,3.55,0,0,1,.08-2.22,4.25,4.25,0,0,1,.86-1.58,3.43,3.43,0,0,1,1.24-.9,3.5,3.5,0,0,1,1.46-.27,4.92,4.92,0,0,1,1.54.29l-2.86,8.9a10,10,0,0,0,2.34.54,7,7,0,0,0,2.49-.17,5.46,5.46,0,0,0,2.21-1.14,5.12,5.12,0,0,0,1.5-2.42,5.66,5.66,0,0,0,.26-2.39,5.52,5.52,0,0,0-.72-2.18M444,345.58a3.51,3.51,0,0,1-.7,1.26A3.46,3.46,0,0,1,441,348a4.24,4.24,0,0,1-1.41-.11l2.19-6.83a4.25,4.25,0,0,1,1.2.72,3.66,3.66,0,0,1,.85,1,3.33,3.33,0,0,1,.39,1.28,3.57,3.57,0,0,1-.18,1.45"/><path class="cls-2" d="M441.41,352.88a3,3,0,0,0-1.33-1,2.73,2.73,0,0,0-2-.16,4.05,4.05,0,0,0-1.55,1,10.09,10.09,0,0,0-1.29,1.6q-0.6.9-1.18,1.64a5.1,5.1,0,0,1-1.19,1.14,1.37,1.37,0,0,1-1.35.1,1.51,1.51,0,0,1-.77-0.63,1.84,1.84,0,0,1-.24-0.9,3.74,3.74,0,0,1,.13-1,7.28,7.28,0,0,1,.32-1,6,6,0,0,1,.58-1.08,3.49,3.49,0,0,1,.77-0.83,2.2,2.2,0,0,1,1-.42,2.31,2.31,0,0,1,1.18.15l0.79-1.9a4.51,4.51,0,0,0-2-.31,3.62,3.62,0,0,0-1.65.57,4.86,4.86,0,0,0-1.3,1.27,8.76,8.76,0,0,0-1,1.75,10.23,10.23,0,0,0-.56,1.82,5.1,5.1,0,0,0-.06,1.83,3.68,3.68,0,0,0,.64,1.6,3.47,3.47,0,0,0,1.56,1.16,3,3,0,0,0,1.52.25,3.14,3.14,0,0,0,1.28-.46,4.94,4.94,0,0,0,1.09-1q0.5-.59,1-1.24l0.86-1.21a8.23,8.23,0,0,1,.85-1.06,3,3,0,0,1,.9-0.66,1.16,1.16,0,0,1,1,0,1.21,1.21,0,0,1,.63.52,1.73,1.73,0,0,1,.21.77,3.12,3.12,0,0,1-.1.89,5.83,5.83,0,0,1-.29.89,4.72,4.72,0,0,1-.48.89,3.09,3.09,0,0,1-.67.7,2.07,2.07,0,0,1-.85.38,2.09,2.09,0,0,1-1-.09l-0.79,1.9a4.61,4.61,0,0,0,1.94.28,3.26,3.26,0,0,0,1.54-.55,4.54,4.54,0,0,0,1.19-1.22,9.89,9.89,0,0,0,.92-1.74,6.94,6.94,0,0,0,.44-1.61,5,5,0,0,0,0-1.62,3.48,3.48,0,0,0-.6-1.43"/><rect class="cls-2" x="428.06" y="363.96" width="6.98" height="1.93" transform="translate(-87.54 588.44) rotate(-63.51)"/><polygon class="cls-2" points="422.03 368.58 426.11 370.99 426.67 373.56 418.88 373.93 417.55 376.18 427.1 375.64 428.49 382.21 429.89 379.84 428.08 372.15 436.89 377.35 437.93 375.58 423.07 366.81 422.03 368.58"/><path class="cls-2" d="M424.28,381.5l-1.19,1.67a2.1,2.1,0,0,1,1,1.85,4.34,4.34,0,0,1-.85,2.06,7,7,0,0,1-.62.76,2.67,2.67,0,0,1-.75.56,1.72,1.72,0,0,1-.89.17,2,2,0,0,1-1-.42,1.12,1.12,0,0,1-.52-0.79,2.24,2.24,0,0,1,.16-1,9,9,0,0,1,.58-1.23c0.25-.45.49-0.93,0.72-1.46s0.43-1,.6-1.48a4.35,4.35,0,0,0,.26-1.47,3.15,3.15,0,0,0-.34-1.42,3.68,3.68,0,0,0-1.21-1.3,3.64,3.64,0,0,0-1.5-.66,2.89,2.89,0,0,0-1.39.1,3.7,3.7,0,0,0-1.25.72,6.78,6.78,0,0,0-2.12,3.44A4.92,4.92,0,0,0,414,384a1.94,1.94,0,0,0-1.46-.46,1.78,1.78,0,0,0-1.1.78,2.91,2.91,0,0,0-.6,1.38l1.3,0.92a2.5,2.5,0,0,1,.28-0.57,0.5,0.5,0,0,1,.6-0.27,4.68,4.68,0,0,1,.92.54l5.23,3.71a3.36,3.36,0,0,0,1.67.68,2.91,2.91,0,0,0,1.49-.28,4.43,4.43,0,0,0,1.28-.95,11.51,11.51,0,0,0,1.07-1.3,8.64,8.64,0,0,0,1-1.75,4.9,4.9,0,0,0,.38-1.76,3.65,3.65,0,0,0-.39-1.69,4.43,4.43,0,0,0-1.32-1.52m-5.51,3q-0.33.61-.58,1.2a2.56,2.56,0,0,0-.24,1.07l-1.71-1.21a2.29,2.29,0,0,1-.63-0.71,2.75,2.75,0,0,1-.35-1.08,3.69,3.69,0,0,1,.11-1.37,4.91,4.91,0,0,1,.78-1.58,4.26,4.26,0,0,1,.61-0.69,2.2,2.2,0,0,1,.7-0.44,1.7,1.7,0,0,1,.77-0.11,1.65,1.65,0,0,1,.82.33,1.91,1.91,0,0,1,.79,1,2.28,2.28,0,0,1,0,1.14,5.12,5.12,0,0,1-.44,1.23q-0.32.63-.65,1.24"/><path class="cls-2" d="M417.51,392a2.72,2.72,0,0,0-1.83-.75,4.09,4.09,0,0,0-1.78.48,10.16,10.16,0,0,0-1.71,1.14q-0.84.68-1.61,1.21a5.18,5.18,0,0,1-1.48.73,1.37,1.37,0,0,1-1.31-.31,1.52,1.52,0,0,1-.55-0.84,1.83,1.83,0,0,1,0-.93,3.76,3.76,0,0,1,.42-0.92,7.81,7.81,0,0,1,.6-0.82,6.06,6.06,0,0,1,.88-0.86,3.4,3.4,0,0,1,1-.56,2.18,2.18,0,0,1,1.06-.1,2.3,2.3,0,0,1,1.08.5l1.32-1.57a4.51,4.51,0,0,0-1.82-.89,3.62,3.62,0,0,0-1.74.05,4.86,4.86,0,0,0-1.62.82,8.84,8.84,0,0,0-1.44,1.38,10.2,10.2,0,0,0-1.08,1.57,5.14,5.14,0,0,0-.61,1.73,3.69,3.69,0,0,0,.13,1.72,3.49,3.49,0,0,0,1.14,1.57A3,3,0,0,0,408,397a3.14,3.14,0,0,0,1.36-.06,4.9,4.9,0,0,0,1.33-.59,15.2,15.2,0,0,0,1.29-.89l1.18-.9a8.39,8.39,0,0,1,1.13-.75,3,3,0,0,1,1.06-.36,1.15,1.15,0,0,1,.92.28,1.22,1.22,0,0,1,.45.69,1.72,1.72,0,0,1,0,.79,3.1,3.1,0,0,1-.36.82,6.15,6.15,0,0,1-.54.76,4.67,4.67,0,0,1-.73.7,3.1,3.1,0,0,1-.85.47,2,2,0,0,1-1.89-.3L411,399.25a4.59,4.59,0,0,0,1.76.85,3.26,3.26,0,0,0,1.63-.07,4.53,4.53,0,0,0,1.5-.81,9.78,9.78,0,0,0,1.39-1.38,6.87,6.87,0,0,0,.91-1.4,5.08,5.08,0,0,0,.48-1.55,3.44,3.44,0,0,0-.14-1.54,3,3,0,0,0-1-1.36"/><path class="cls-2" d="M409.86,401a2.72,2.72,0,0,0-1.77-.89,4.06,4.06,0,0,0-1.81.34,10.32,10.32,0,0,0-1.79,1q-0.89.62-1.71,1.09a5.12,5.12,0,0,1-1.53.61,1.37,1.37,0,0,1-1.28-.41,1.52,1.52,0,0,1-.48-0.87,1.83,1.83,0,0,1,.11-0.92,3.69,3.69,0,0,1,.49-0.89,7.56,7.56,0,0,1,.66-0.78,6.15,6.15,0,0,1,.94-0.79,3.48,3.48,0,0,1,1-.48,2.19,2.19,0,0,1,1.07,0,2.32,2.32,0,0,1,1,.58l1.44-1.47a4.54,4.54,0,0,0-1.74-1,3.63,3.63,0,0,0-1.74-.08,4.85,4.85,0,0,0-1.68.69,8.89,8.89,0,0,0-1.54,1.26,10.21,10.21,0,0,0-1.2,1.48,5.14,5.14,0,0,0-.74,1.67,3.7,3.7,0,0,0,0,1.73,3.47,3.47,0,0,0,1,1.66,3,3,0,0,0,1.31.8,3.12,3.12,0,0,0,1.36,0,4.88,4.88,0,0,0,1.37-.48,15.31,15.31,0,0,0,1.35-.79l1.25-.81a8.42,8.42,0,0,1,1.19-.66,3,3,0,0,1,1.08-.28,1.16,1.16,0,0,1,.89.35,1.21,1.21,0,0,1,.39.72,1.72,1.72,0,0,1-.09.79,3.12,3.12,0,0,1-.42.79,5.89,5.89,0,0,1-.6.72,4.6,4.6,0,0,1-.78.64,3.1,3.1,0,0,1-.88.4,2,2,0,0,1-1.87-.44l-1.44,1.47a4.6,4.6,0,0,0,1.69,1,3.25,3.25,0,0,0,1.63.06,4.54,4.54,0,0,0,1.56-.69,9.77,9.77,0,0,0,1.5-1.27,6.88,6.88,0,0,0,1-1.33,5,5,0,0,0,.6-1.51,3.45,3.45,0,0,0,0-1.55,3,3,0,0,0-.86-1.43"/><path class="cls-2" d="M399.64,407.18a10,10,0,0,0-2-1.71,5.75,5.75,0,0,0-2.21-.83,5.11,5.11,0,0,0-2.28.19,6.41,6.41,0,0,0-2.28,1.34,5.67,5.67,0,0,0-2,3.12,5,5,0,0,0,.7,3.58l1.53-1.33a2.93,2.93,0,0,1-.37-2.11,3.56,3.56,0,0,1,1.22-1.86,4.26,4.26,0,0,1,1.56-.9,3.48,3.48,0,0,1,1.52-.12,3.54,3.54,0,0,1,1.38.53,4.94,4.94,0,0,1,1.17,1.05l-7.06,6.13a10,10,0,0,0,1.72,1.67,6.94,6.94,0,0,0,2.21,1.15,5.5,5.5,0,0,0,2.48.17,5.14,5.14,0,0,0,2.54-1.29,5.69,5.69,0,0,0,1.46-1.91,5.55,5.55,0,0,0,.52-2.24,6.25,6.25,0,0,0-.42-2.35,7.52,7.52,0,0,0-1.38-2.26m-0.37,6.16a3.57,3.57,0,0,1-.9,1.15,3.48,3.48,0,0,1-3.88.52,4.23,4.23,0,0,1-1.15-.83l5.42-4.7a4.25,4.25,0,0,1,.66,1.24,3.63,3.63,0,0,1,.19,1.32,3.33,3.33,0,0,1-.33,1.3"/><path class="cls-2" d="M384.38,411.93l4.42,6.4a3,3,0,0,1,.37.85,3.49,3.49,0,0,1-.24,2.5,3.07,3.07,0,0,1-1.06,1.17,2.78,2.78,0,0,1-1.06.48,1.76,1.76,0,0,1-.92-0.07,2.38,2.38,0,0,1-.81-0.51,5.27,5.27,0,0,1-.72-0.85l-4.66-6.74L378,416.32l4.42,6.4a3.14,3.14,0,0,1,.6,2.4,3.23,3.23,0,0,1-1.47,2.08,2.93,2.93,0,0,1-1.13.51,1.81,1.81,0,0,1-.94-0.07,2.24,2.24,0,0,1-.8-0.52,5.82,5.82,0,0,1-.7-0.84l-4.66-6.74-1.69,1.17,5.21,7.53a4.1,4.1,0,0,0,1.19,1.19,2.9,2.9,0,0,0,1.34.44,3.5,3.5,0,0,0,1.44-.21,6.54,6.54,0,0,0,1.52-.8,4.66,4.66,0,0,0,1.54-1.74,4.35,4.35,0,0,0,.47-2.23,2.71,2.71,0,0,0,2,.6,4.87,4.87,0,0,0,4.12-4.84l0,0,1,1.51,1.59-1.1-7.1-10.28Z"/><rect class="cls-2" x="366.73" y="428.03" width="6.98" height="1.93" transform="translate(-161.54 233.21) rotate(-28.99)"/><path class="cls-2" d="M360.58,426.63l3.08,7.14a3,3,0,0,1,.19.9,3.48,3.48,0,0,1-.72,2.41,3.09,3.09,0,0,1-1.27.94,2.75,2.75,0,0,1-1.14.27,1.75,1.75,0,0,1-.88-0.25,2.35,2.35,0,0,1-.69-0.66,5.37,5.37,0,0,1-.54-1l-3.25-7.52-1.89.81,3.09,7.14a3.14,3.14,0,0,1,.12,2.47,3.23,3.23,0,0,1-1.85,1.75,2.91,2.91,0,0,1-1.21.28,1.81,1.81,0,0,1-.91-0.25,2.23,2.23,0,0,1-.68-0.67,5.81,5.81,0,0,1-.52-1L348.27,432l-1.88.81,3.63,8.41a4.14,4.14,0,0,0,.93,1.4,2.91,2.91,0,0,0,1.22.7,3.54,3.54,0,0,0,1.45.07,6.56,6.56,0,0,0,1.65-.49,4.66,4.66,0,0,0,1.85-1.41,4.34,4.34,0,0,0,.9-2.1,2.71,2.71,0,0,0,1.87,1,4.87,4.87,0,0,0,5-3.94l0,0,0.73,1.68,1.78-.77-5-11.47Z"/><path class="cls-2" d="M345.74,436.72a5.82,5.82,0,0,0-1.71-1.64,5.32,5.32,0,0,0-2.23-.77,7.17,7.17,0,0,0-5,1.51,5.38,5.38,0,0,0-1.42,1.87,5.86,5.86,0,0,0-.51,2.31,8.25,8.25,0,0,0,.37,2.56,8.34,8.34,0,0,0,1.11,2.35,5.88,5.88,0,0,0,1.71,1.65,5.51,5.51,0,0,0,2.22.78,7,7,0,0,0,5-1.51,5.47,5.47,0,0,0,1.43-1.88,5.82,5.82,0,0,0,.51-2.32,8.3,8.3,0,0,0-.38-2.57,8.21,8.21,0,0,0-1.11-2.34m-1,6.65a3.57,3.57,0,0,1-.93,1.24,3.79,3.79,0,0,1-2.89.87,3.55,3.55,0,0,1-1.46-.52,4.34,4.34,0,0,1-1.23-1.18,6.87,6.87,0,0,1-1.17-3.86,4.21,4.21,0,0,1,.37-1.65,3.63,3.63,0,0,1,.93-1.23,3.78,3.78,0,0,1,2.89-.87,3.61,3.61,0,0,1,1.45.51,4.23,4.23,0,0,1,1.22,1.17,6.87,6.87,0,0,1,1.17,3.86,4.36,4.36,0,0,1-.37,1.66"/><rect class="cls-2" x="331.75" y="436.89" width="2.05" height="17.25" transform="translate(-93.36 88.26) rotate(-13.27)"/><rect class="cls-2" x="328.38" y="452.53" width="2.05" height="2.51" transform="translate(-83.09 73.95) rotate(-11.38)"/><rect class="cls-2" x="326.46" y="437.98" width="2.05" height="12.49" transform="matrix(0.98, -0.2, 0.2, 0.98, -81.07, 73.2)"/><path class="cls-2" d="M320.95,439.11l1,7a5.05,5.05,0,0,1,0,1.58,3.53,3.53,0,0,1-.51,1.33,3.08,3.08,0,0,1-1,1,4.19,4.19,0,0,1-1.57.51,2.34,2.34,0,0,1-2.86-2.14L314.77,440l-2,.28,1.14,8.14a7.64,7.64,0,0,0,.46,1.8,3.5,3.5,0,0,0,.9,1.32,3.42,3.42,0,0,0,1.44.75,5.46,5.46,0,0,0,2.08.05,4.32,4.32,0,0,0,3.71-2.81h0l0.27,2,1.91-.27L323,438.82Z"/><path class="cls-2" d="M309.81,442.06a5.13,5.13,0,0,0-1.92-1.25,6.42,6.42,0,0,0-2.62-.35,5.67,5.67,0,0,0-3.47,1.25,5,5,0,0,0-1.64,3.26l2-.11a2.92,2.92,0,0,1,1-1.89,3.55,3.55,0,0,1,2.1-.72,4.22,4.22,0,0,1,1.78.24,3.42,3.42,0,0,1,2,2.1,4.93,4.93,0,0,1,.28,1.55l-9.34.5a10,10,0,0,0,.33,2.38,6.93,6.93,0,0,0,1,2.27,5.49,5.49,0,0,0,1.85,1.66,5.11,5.11,0,0,0,2.8.54,5.67,5.67,0,0,0,2.33-.61,5.54,5.54,0,0,0,1.79-1.45,6.23,6.23,0,0,0,1.11-2.12,7.49,7.49,0,0,0,.3-2.63,10,10,0,0,0-.56-2.61,5.73,5.73,0,0,0-1.23-2m-0.56,7.28a3.63,3.63,0,0,1-.66,1.16,3.31,3.31,0,0,1-1.06.82,3.58,3.58,0,0,1-1.42.35,3.52,3.52,0,0,1-1.43-.2,3.57,3.57,0,0,1-1.15-.69,3.53,3.53,0,0,1-.81-1.08,4.24,4.24,0,0,1-.4-1.36l7.17-.38a4.25,4.25,0,0,1-.24,1.38"/><path class="cls-2" d="M296.45,446.46a8.52,8.52,0,0,1-.28,2.14,4.12,4.12,0,0,1-.8,1.57,3.32,3.32,0,0,1-1.42,1,5.78,5.78,0,0,1-2.11.3l0,2.17a4.62,4.62,0,0,0,2.77-.63,5.56,5.56,0,0,0,1.87-2.22h0l0,2.63,1.93,0,0.2-12.49-2.05,0Z"/><path class="cls-2" d="M291.72,444.56a5.82,5.82,0,0,0-1-2.15,5.32,5.32,0,0,0-1.79-1.53,7.15,7.15,0,0,0-5.21-.42,5.37,5.37,0,0,0-2,1.22,5.85,5.85,0,0,0-1.32,2,8.23,8.23,0,0,0-.59,2.52,8.42,8.42,0,0,0,.18,2.6,5.84,5.84,0,0,0,1,2.16,5.48,5.48,0,0,0,1.78,1.54,7,7,0,0,0,5.21.42,5.45,5.45,0,0,0,2-1.23,5.83,5.83,0,0,0,1.32-2,8.3,8.3,0,0,0,.59-2.53,8.15,8.15,0,0,0-.18-2.59m-2,2.41a6.23,6.23,0,0,1-.46,2,4.38,4.38,0,0,1-1,1.41,3.53,3.53,0,0,1-1.31.81,3.78,3.78,0,0,1-3-.24,3.55,3.55,0,0,1-1.17-1,4.36,4.36,0,0,1-.71-1.55,6.88,6.88,0,0,1,.33-4,4.22,4.22,0,0,1,.95-1.4,3.6,3.6,0,0,1,1.31-.8,3.7,3.7,0,0,1,4.18,1.25,4.2,4.2,0,0,1,.71,1.54,6.2,6.2,0,0,1,.14,2"/><path class="cls-2" d="M276.48,441.68a8.93,8.93,0,0,0-2.46-2.43,9.06,9.06,0,0,0-3.37-1.36,9.32,9.32,0,0,0-2.28-.16,8.52,8.52,0,0,0-2.21.41,8.65,8.65,0,0,0-2,1,7.87,7.87,0,0,0-1.71,1.5l1.49,0.29a7.59,7.59,0,0,1,3-1.59,7.45,7.45,0,0,1,3.44-.15,7.07,7.07,0,0,1,2.71,1.12,7.68,7.68,0,0,1,2,2,7.56,7.56,0,0,1,1.13,2.69,7.66,7.66,0,0,1,0,3.08,7.9,7.9,0,0,1-1.12,2.84,8,8,0,0,1-2,2.13,7.35,7.35,0,0,1-2.61,1.21,6.84,6.84,0,0,1-3,.06,7,7,0,0,1-2.33-.89,6.59,6.59,0,0,1-1.82-1.61,6,6,0,0,1-1.11-4.85,6.43,6.43,0,0,1,.68-1.86,8.17,8.17,0,0,1,1.12-1.61,5.36,5.36,0,0,1,1.3-1.08,1.8,1.8,0,0,1,1.22-.28,0.6,0.6,0,0,1,.43.85,2.35,2.35,0,0,1-.19.56q-0.14.3-.3,0.6l-3.29,6.36,1.49,0.29,0.83-1.39a2.75,2.75,0,0,0,2.28,2.45,4.58,4.58,0,0,0,2.4-.15,5.94,5.94,0,0,0,2.05-1.21,7.52,7.52,0,0,0,1.54-1.94,7.8,7.8,0,0,0,.87-2.37,4.34,4.34,0,0,0,0-1.52,3.68,3.68,0,0,0-.46-1.32,3.3,3.3,0,0,0-.92-1,3.26,3.26,0,0,0-1.33-.56,3,3,0,0,0-1.73.17,6.28,6.28,0,0,0-1.52.85h-0.07a1.65,1.65,0,0,0-.25-1.25,1.55,1.55,0,0,0-1-.58,4.07,4.07,0,0,0-1.9.15,6.55,6.55,0,0,0-2.07,1.05,8,8,0,0,0-1.81,1.9,7,7,0,0,0-1.1,2.7,6.88,6.88,0,0,0,.07,3.08,7.17,7.17,0,0,0,1.3,2.64,8.4,8.4,0,0,0,2.29,2,9,9,0,0,0,3,1.14,8.67,8.67,0,0,0,3.54,0,9,9,0,0,0,3.16-1.35,9.24,9.24,0,0,0,2.44-2.44,8.65,8.65,0,0,0,1.36-3.29,9.11,9.11,0,0,0,0-3.65,8.94,8.94,0,0,0-1.34-3.19m-8.08,2.93a5.13,5.13,0,0,1,1.41-1.06,2.36,2.36,0,0,1,1.54-.23,1.9,1.9,0,0,1,1.35.94A2.46,2.46,0,0,1,273,446a5.33,5.33,0,0,1-.6,1.59,6.51,6.51,0,0,1-1.09,1.45,4.69,4.69,0,0,1-1.43,1,2.67,2.67,0,0,1-1.62.19,1.49,1.49,0,0,1-.69-0.33,2.45,2.45,0,0,1-.52-0.61,2.19,2.19,0,0,1-.29-0.78,2.36,2.36,0,0,1,0-.86,5.31,5.31,0,0,1,.6-1.56,7.09,7.09,0,0,1,1.1-1.5"/><path class="cls-2" d="M258.47,435.57a6.52,6.52,0,0,0-2.28-1.18,5.43,5.43,0,0,0-4,.1,5.77,5.77,0,0,0-2.7,2.91l2,0.62a3.61,3.61,0,0,1,1.66-1.84,3.88,3.88,0,0,1,4,.79,3.23,3.23,0,0,1,.79,1.31,4.55,4.55,0,0,1,.18,1.58,7,7,0,0,1-.3,1.68,8.5,8.5,0,0,1-.72,1.69,4.57,4.57,0,0,1-1.07,1.3,3.31,3.31,0,0,1-1.46.69,3.82,3.82,0,0,1-1.9-.15,2.87,2.87,0,0,1-2.23-3.28l-2-.62a5,5,0,0,0,0,2,4.28,4.28,0,0,0,.73,1.63,4.89,4.89,0,0,0,1.34,1.23,7.56,7.56,0,0,0,1.83.82,6,6,0,0,0,2.62.26,5.2,5.2,0,0,0,2.18-.82,6.09,6.09,0,0,0,1.67-1.71,9.22,9.22,0,0,0,1.11-2.4,8.48,8.48,0,0,0,.39-2.57,5.66,5.66,0,0,0-.47-2.26,4.87,4.87,0,0,0-1.37-1.78"/><path class="cls-2" d="M248.15,433.73a5.33,5.33,0,0,0-1.25-2,7.16,7.16,0,0,0-4.85-2,5.36,5.36,0,0,0-2.27.56,5.83,5.83,0,0,0-1.85,1.48,8.7,8.7,0,0,0-1.93,4.76,5.82,5.82,0,0,0,.29,2.36,5.45,5.45,0,0,0,1.24,2,7,7,0,0,0,4.85,2,5.45,5.45,0,0,0,2.29-.57,5.81,5.81,0,0,0,1.85-1.49,8.69,8.69,0,0,0,1.93-4.76,5.85,5.85,0,0,0-.3-2.35m-2.32,4.05a6.21,6.21,0,0,1-1,1.76,4.39,4.39,0,0,1-1.33,1.06,3.58,3.58,0,0,1-1.5.38,3.79,3.79,0,0,1-2.8-1.13,3.56,3.56,0,0,1-.81-1.32,4.39,4.39,0,0,1-.21-1.69,6.9,6.9,0,0,1,1.52-3.74,4.24,4.24,0,0,1,1.33-1.05,3.66,3.66,0,0,1,3-.1,3.71,3.71,0,0,1,1.28.86,3.61,3.61,0,0,1,.81,1.31,4.19,4.19,0,0,1,.22,1.68,6.2,6.2,0,0,1-.48,2"/><path class="cls-2" d="M236.8,430.8a3.61,3.61,0,0,0,.44-1.58,2.91,2.91,0,0,0-.3-1.36,3.72,3.72,0,0,0-.9-1.14,6.79,6.79,0,0,0-3.71-1.61,4.92,4.92,0,0,0-2.42.41,1.94,1.94,0,0,0,.25-1.52,1.77,1.77,0,0,0-.93-1,2.89,2.89,0,0,0-1.46-.39l-0.72,1.42a2.45,2.45,0,0,1,.6.2,0.5,0.5,0,0,1,.35.56,4.79,4.79,0,0,1-.41,1l-2.92,5.71a3.33,3.33,0,0,0-.43,1.75,2.88,2.88,0,0,0,.49,1.43,4.37,4.37,0,0,0,1.12,1.13,11.66,11.66,0,0,0,1.44.87,8.74,8.74,0,0,0,1.87.71,4.86,4.86,0,0,0,1.8.12,3.66,3.66,0,0,0,1.62-.62,4.44,4.44,0,0,0,1.32-1.52l-1.83-.94a2.11,2.11,0,0,1-1.69,1.24,4.36,4.36,0,0,1-2.16-.55,6.58,6.58,0,0,1-.84-0.51,2.65,2.65,0,0,1-.67-0.67,1.73,1.73,0,0,1-.29-0.85,2,2,0,0,1,.27-1.08,1.12,1.12,0,0,1,.7-0.63,2.21,2.21,0,0,1,1,0,9,9,0,0,1,1.3.4q0.72,0.27,1.55.51c0.52,0.16,1,.28,1.55.39a4.38,4.38,0,0,0,1.5,0,3.18,3.18,0,0,0,1.35-.54,3.67,3.67,0,0,0,1.11-1.38m-2-.85a1.92,1.92,0,0,1-.87.92,2.28,2.28,0,0,1-1.12.2,5.2,5.2,0,0,1-1.28-.26l-1.33-.46q-0.65-.24-1.27-0.41a2.56,2.56,0,0,0-1.1-.09l1-1.86a2.32,2.32,0,0,1,.62-0.73,2.75,2.75,0,0,1,1-.5,3.67,3.67,0,0,1,1.37-.08,4.89,4.89,0,0,1,1.67.54,4.27,4.27,0,0,1,.77.5,2.19,2.19,0,0,1,.54.63,1.69,1.69,0,0,1,.22.75,1.66,1.66,0,0,1-.2.85"/><path class="cls-2" d="M225.37,425.2a5.67,5.67,0,0,0,.13-2.3,4.9,4.9,0,0,0-.87-2.08,6.49,6.49,0,0,0-1.9-1.73,5.43,5.43,0,0,0-3.87-.93,5.75,5.75,0,0,0-3.36,2.12l1.79,1.11a3.6,3.6,0,0,1,2.08-1.35,3.36,3.36,0,0,1,2.44.58,3.43,3.43,0,0,1,1.21,1.21,3.27,3.27,0,0,1,.42,1.47,4.49,4.49,0,0,1-.23,1.58,7,7,0,0,1-.72,1.54,8.38,8.38,0,0,1-1.13,1.45,4.55,4.55,0,0,1-1.37,1,3.31,3.31,0,0,1-1.59.29,3.83,3.83,0,0,1-1.8-.64,2.87,2.87,0,0,1-1.31-3.75l-1.8-1.12a4.94,4.94,0,0,0-.52,1.94,4.27,4.27,0,0,0,.29,1.76,4.85,4.85,0,0,0,1,1.53,7.51,7.51,0,0,0,1.56,1.27,6,6,0,0,0,2.47.93,5.19,5.19,0,0,0,2.32-.23,6.08,6.08,0,0,0,2.06-1.22,9.16,9.16,0,0,0,1.69-2,8.33,8.33,0,0,0,1-2.38"/><rect class="cls-2" x="213.23" y="414.24" width="2.68" height="2.68" transform="translate(-248.33 348.71) rotate(-54.47)"/><path class="cls-2" d="M205.94,416.3a5,5,0,0,1-1.16,1.06,3.55,3.55,0,0,1-1.32.53,3.06,3.06,0,0,1-1.41-.09,4.2,4.2,0,0,1-1.45-.81,2.52,2.52,0,0,1-1-1.7,2.48,2.48,0,0,1,.64-1.85l5.35-6.55-1.59-1.3L198.78,412a7.72,7.72,0,0,0-1,1.56,3.52,3.52,0,0,0-.36,1.57,3.37,3.37,0,0,0,.43,1.57,5.4,5.4,0,0,0,1.38,1.56,4.32,4.32,0,0,0,4.58.81l0,0-1.25,1.53,1.5,1.22,7.9-9.68-1.59-1.3Z"/><path class="cls-2" d="M200,407a5.72,5.72,0,0,0,.64-2.27,5.1,5.1,0,0,0-.39-2.26,6.4,6.4,0,0,0-1.53-2.16,5.68,5.68,0,0,0-3.27-1.69,5,5,0,0,0-3.5,1l1.46,1.41a2.91,2.91,0,0,1,2.07-.55,3.55,3.55,0,0,1,2,1.05,4.26,4.26,0,0,1,1,1.47,3.44,3.44,0,0,1,.25,1.51,3.51,3.51,0,0,1-.41,1.43,4.9,4.9,0,0,1-.95,1.25l-6.71-6.51a10,10,0,0,0-1.52,1.86,7,7,0,0,0-1,2.3,5.5,5.5,0,0,0,0,2.49,5.13,5.13,0,0,0,1.51,2.42,5.67,5.67,0,0,0,2,1.29,5.53,5.53,0,0,0,2.28.32,6.23,6.23,0,0,0,2.31-.62,7.53,7.53,0,0,0,2.13-1.57A10,10,0,0,0,200,407M195,409.24a3.62,3.62,0,0,1-1.3.3,3.31,3.31,0,0,1-1.32-.22A3.6,3.6,0,0,1,190,406a3.48,3.48,0,0,1,.25-1.33,4.17,4.17,0,0,1,.72-1.22l5.15,5a4.3,4.3,0,0,1-1.18.76"/><path class="cls-2" d="M191.28,396.89a4.79,4.79,0,0,0,.93-1.07,1.71,1.71,0,0,0,.26-0.94,2,2,0,0,0-.32-0.95,7.4,7.4,0,0,0-.84-1.09l-1.05-1.16-1.34,1.22,0.63,0.7a6.76,6.76,0,0,1,.5.61,1,1,0,0,1,.2.45,0.6,0.6,0,0,1-.1.4,2.28,2.28,0,0,1-.39.43L184,400.7l-1.67-1.85L181,400.07l1.67,1.85-2.78,2.51,1.38,1.52,2.78-2.51,1.43,1.58,1.34-1.22-1.43-1.58Z"/><polygon class="cls-2" points="185.99 385.88 167.27 391.01 168.33 392.42 187.04 387.27 185.99 385.88"/><path class="cls-2" d="M170.69,380.08a12.15,12.15,0,0,0,2.82-2.18,8.12,8.12,0,0,0,1.74-2.71,6.87,6.87,0,0,0,.41-3.1,8.33,8.33,0,0,0-1.14-3.38,7.26,7.26,0,0,0-4.16-3.63,7.85,7.85,0,0,0-5.52.57l1.14,2a6.57,6.57,0,0,1,1.94-.61,4.76,4.76,0,0,1,1.87.09,4.55,4.55,0,0,1,1.66.8,5.11,5.11,0,0,1,1.33,1.57,5.68,5.68,0,0,1,.82,2.59,5.18,5.18,0,0,1-.45,2.36,6.67,6.67,0,0,1-1.47,2.05,11.23,11.23,0,0,1-2.25,1.68,10,10,0,0,1-2.43,1,6.71,6.71,0,0,1-2.46.2,5.23,5.23,0,0,1-2.26-.8,5.6,5.6,0,0,1-1.82-2,5.32,5.32,0,0,1-.76-3.17,4.26,4.26,0,0,1,1.54-2.85l-1.14-2a6.48,6.48,0,0,0-1.7,1.92,6,6,0,0,0-.74,2.23,6.9,6.9,0,0,0,.14,2.4,8.91,8.91,0,0,0,1,2.4,8.3,8.3,0,0,0,2.37,2.7,7.27,7.27,0,0,0,3,1.26,8.54,8.54,0,0,0,3.28-.08,11.5,11.5,0,0,0,3.34-1.3"/><path class="cls-2" d="M164.25,347.58a5.66,5.66,0,0,0-1.2-2,5,5,0,0,0-1.63-1.14,4.6,4.6,0,0,0-1.84-.37,5.17,5.17,0,0,0-1.84.34,4.34,4.34,0,0,0-2.22,1.76A4,4,0,0,0,155,349l0,0a3.91,3.91,0,0,0-2.07-1.24,4.22,4.22,0,0,0-2.46.23,3.9,3.9,0,0,0-1.84,1.34,4.5,4.5,0,0,0-.79,1.84,3,3,0,0,0,0,1,9.49,9.49,0,0,0,.25,1.16c0.11,0.41.24,0.81,0.39,1.21s0.28,0.78.42,1.12l2.24,5.84,16.11-6.17ZM152.1,358.7l-1.64-4.29a11.36,11.36,0,0,1-.43-1.35,3.13,3.13,0,0,1-.07-1.23,2.07,2.07,0,0,1,.48-1,3,3,0,0,1,1.25-.79,2.49,2.49,0,0,1,2.24.06,4.54,4.54,0,0,1,1.65,2.38l1.64,4.29Zm5.05-7.55a7.24,7.24,0,0,1-.38-1.36,3.52,3.52,0,0,1,0-1.28,2.45,2.45,0,0,1,.53-1.09,2.85,2.85,0,0,1,1.2-.79,3,3,0,0,1,2.43,0,3.3,3.3,0,0,1,1.62,1.93l2.05,5.37L159,356Z"/><path class="cls-2" d="M150.36,336.49a2,2,0,0,1,1-.53,1.12,1.12,0,0,1,.94.09,2.23,2.23,0,0,1,.69.76,8.89,8.89,0,0,1,.59,1.23q0.28,0.71.67,1.48c0.24,0.49.49,1,.76,1.41a4.4,4.4,0,0,0,1,1.13,3.16,3.16,0,0,0,1.31.63,3.7,3.7,0,0,0,1.77-.11,3.62,3.62,0,0,0,1.46-.74,2.9,2.9,0,0,0,.8-1.14,3.72,3.72,0,0,0,.23-1.43,6.82,6.82,0,0,0-1.31-3.82,4.9,4.9,0,0,0-1.93-1.51,2,2,0,0,0,1.28-.84,1.77,1.77,0,0,0,.1-1.34,2.9,2.9,0,0,0-.69-1.34l-1.54.42a2.39,2.39,0,0,1,.26.58,0.5,0.5,0,0,1-.17.64,4.74,4.74,0,0,1-1,.36l-6.19,1.7a3.36,3.36,0,0,0-1.59.86,2.9,2.9,0,0,0-.72,1.33,4.42,4.42,0,0,0-.08,1.59,12,12,0,0,0,.33,1.65,8.78,8.78,0,0,0,.74,1.86,4.85,4.85,0,0,0,1.13,1.41,3.67,3.67,0,0,0,1.55.78,4.45,4.45,0,0,0,2-.05l-0.55-2a2.1,2.1,0,0,1-2.05-.41,4.34,4.34,0,0,1-1.05-2,6.55,6.55,0,0,1-.19-1,2.67,2.67,0,0,1,0-.94,1.75,1.75,0,0,1,.43-0.8m5.36-1.71a2.29,2.29,0,0,1,.95,0,2.75,2.75,0,0,1,1.06.41,3.67,3.67,0,0,1,1,1,4.88,4.88,0,0,1,.73,1.6,4.27,4.27,0,0,1,.15.91,2.24,2.24,0,0,1-.1.82,1.69,1.69,0,0,1-.4.66,1.64,1.64,0,0,1-.77.42,1.91,1.91,0,0,1-1.26,0,2.28,2.28,0,0,1-.9-0.69,5.16,5.16,0,0,1-.67-1.12q-0.29-.65-0.55-1.29c-0.18-.43-0.36-0.83-0.56-1.21a2.55,2.55,0,0,0-.68-0.87Z"/><rect class="cls-2" x="146.33" y="328.49" width="12.49" height="2.05" transform="translate(-65.13 38.89) rotate(-11.99)"/><rect class="cls-2" x="141.78" y="330.51" width="2.51" height="2.05" transform="translate(-65.83 37.01) rotate(-12.01)"/><rect class="cls-2" x="140.69" y="324.18" width="17.25" height="2.05" transform="translate(-54.87 31.33) rotate(-10.13)"/><polygon class="cls-2" points="141.98 317.11 137.69 314.19 138.01 316.8 142.17 318.64 141.98 317.11"/><path class="cls-2" d="M144.62,319a5.55,5.55,0,0,0,1.56,1.69,6.23,6.23,0,0,0,2.18,1,7.56,7.56,0,0,0,2.64.12,10,10,0,0,0,2.57-.73,5.77,5.77,0,0,0,1.93-1.36,5.12,5.12,0,0,0,1.12-2,6.4,6.4,0,0,0,.17-2.64,5.67,5.67,0,0,0-1.47-3.38,5,5,0,0,0-3.36-1.43l0.24,2a2.92,2.92,0,0,1,2,.88,3.56,3.56,0,0,1,.85,2.05,4.26,4.26,0,0,1-.13,1.79,3.45,3.45,0,0,1-.76,1.33,3.52,3.52,0,0,1-1.21.85,5,5,0,0,1-1.52.38l-1.1-9.29a10,10,0,0,0-2.35.49,6.92,6.92,0,0,0-2.19,1.19,5.46,5.46,0,0,0-1.53,2,5.12,5.12,0,0,0-.36,2.83,5.68,5.68,0,0,0,.76,2.28m1.16-3.81a3.48,3.48,0,0,1,1.64-2.07,4.23,4.23,0,0,1,1.33-.49l0.85,7.13a4.29,4.29,0,0,1-1.39-.15A3.63,3.63,0,0,1,147,319a3.31,3.31,0,0,1-.89-1,3.59,3.59,0,0,1-.45-1.4,3.53,3.53,0,0,1,.11-1.44"/><path class="cls-2" d="M143.34,308.83l12.48-.41-0.07-2.05-7.05.23a5.05,5.05,0,0,1-1.57-.18,3.56,3.56,0,0,1-1.27-.65,3.06,3.06,0,0,1-.86-1.12,4.17,4.17,0,0,1-.34-1.62,2.34,2.34,0,0,1,2.43-2.62l8.45-.28-0.07-2.05-8.21.27a7.72,7.72,0,0,0-1.84.27,3.51,3.51,0,0,0-1.41.76,3.4,3.4,0,0,0-.9,1.36,5.44,5.44,0,0,0-.27,2.07,4.33,4.33,0,0,0,2.4,4v0l-2,.06Z"/><path class="cls-2" d="M141.61,284.89a4.6,4.6,0,0,1,.35,1.53,10.55,10.55,0,0,1,0,1.7l1.64,0.16,0.42-4.42L156.21,285l0.19-2-17.05-1.62-0.15,1.56a3.75,3.75,0,0,1,1.53.78,3.4,3.4,0,0,1,.88,1.21"/><path class="cls-2" d="M143.91,266.39a26,26,0,0,0,2.61,3,25.1,25.1,0,0,0,3.15,2.68,24.65,24.65,0,0,0,3.63,2.16,21.24,21.24,0,0,0,4,1.47l0.42-2.26a21.46,21.46,0,0,1-3.94-1.41,27.72,27.72,0,0,1-3.8-2.16,27.16,27.16,0,0,1-3.34-2.67,17.58,17.58,0,0,1-2.55-3L142.4,264l-2,10.91,1.9,0.35Z"/><path class="cls-2" d="M145.77,260.84a9.31,9.31,0,0,0,2.55,1.77,19,19,0,0,0,3.21,1.21,19.9,19.9,0,0,0,2.76.55,8.2,8.2,0,0,0,2.78-.09,5.28,5.28,0,0,0,2.39-1.19,5.45,5.45,0,0,0,1.56-2.75,6.06,6.06,0,0,0,.2-2.76,5.08,5.08,0,0,0-.85-2.07,5.26,5.26,0,0,0-1.53-1.41,7,7,0,0,0-1.81-.8,6.46,6.46,0,0,0-2.22-.24,5.36,5.36,0,0,0-2,.52,4.66,4.66,0,0,0-1.57,1.27,6,6,0,0,0-1.15,4.55,4.41,4.41,0,0,0,1.17,2.19l-0.06,0a17.15,17.15,0,0,1-2-.75,7.82,7.82,0,0,1-1.87-1.16,4.38,4.38,0,0,1-1.23-1.63,3.25,3.25,0,0,1-.06-2.2,2.8,2.8,0,0,1,1.2-1.72,3,3,0,0,1,2-.36l0.55-2a4.74,4.74,0,0,0-3.52.53,4.88,4.88,0,0,0-2,3,5.52,5.52,0,0,0-.07,3.14,5.77,5.77,0,0,0,1.46,2.41m6.16-3.13a3.45,3.45,0,0,1,.71-1.38,3.21,3.21,0,0,1,1.09-.83,3.31,3.31,0,0,1,1.36-.29,5.46,5.46,0,0,1,1.51.2,4.56,4.56,0,0,1,1.32.61,3.83,3.83,0,0,1,1,1,3,3,0,0,1,.51,1.26,3.43,3.43,0,0,1-.11,1.51,3.62,3.62,0,0,1-.7,1.37,3.23,3.23,0,0,1-1.08.85,3.55,3.55,0,0,1-1.35.34,4.62,4.62,0,0,1-1.51-.17,4.9,4.9,0,0,1-1.39-.63,3.4,3.4,0,0,1-1-1,3.31,3.31,0,0,1-.49-1.29,3.59,3.59,0,0,1,.12-1.55"/><polygon class="cls-2" points="169.6 236.45 167.83 235.69 164.01 244.59 158.53 242.24 162.06 234 160.28 233.24 156.75 241.48 151.71 239.32 155.5 230.48 153.72 229.72 149.03 240.66 164.88 247.46 169.6 236.45"/><path class="cls-2" d="M171.28,233.35l-6.2-3.37a5,5,0,0,1-1.26-.95,3.51,3.51,0,0,1-.76-1.2,3,3,0,0,1-.17-1.4,4.2,4.2,0,0,1,.52-1.57,2.51,2.51,0,0,1,1.48-1.31,2.48,2.48,0,0,1,1.94.28l7.43,4,1-1.8L168,222.14a7.78,7.78,0,0,0-1.72-.7,3.48,3.48,0,0,0-1.6-.06,3.36,3.36,0,0,0-1.46.72,5.44,5.44,0,0,0-1.28,1.64,4.32,4.32,0,0,0,.06,4.65l0,0-1.74-.94-0.92,1.7,11,6Z"/><path class="cls-2" d="M165.2,218.61l1.53,1,1.14-1.8,6.71,4.26a4.75,4.75,0,0,0,1.27.61,1.71,1.71,0,0,0,1,0,2,2,0,0,0,.83-0.56,7.37,7.37,0,0,0,.82-1.09l0.84-1.32-1.53-1-0.5.79a6.53,6.53,0,0,1-.45.64,1,1,0,0,1-.38.31,0.6,0.6,0,0,1-.41,0,2.26,2.26,0,0,1-.52-0.26L169,216.05l1.33-2.1-1.53-1-1.33,2.1-3.16-2-1.1,1.73,3.16,2Z"/><path class="cls-2" d="M181.29,216.85l-4.54-3.21a8.52,8.52,0,0,1-1.61-1.43,4.07,4.07,0,0,1-.85-1.54,3.31,3.31,0,0,1,0-1.72,5.79,5.79,0,0,1,.94-1.91l-1.78-1.25a4.62,4.62,0,0,0-1,2.64,5.56,5.56,0,0,0,.78,2.8l0,0L171,209.74l-1.11,1.58,10.2,7.2Z"/><path class="cls-2" d="M176.95,207.55a7.48,7.48,0,0,0,1.76,2,10,10,0,0,0,2.32,1.32,5.75,5.75,0,0,0,2.32.43,5.13,5.13,0,0,0,2.21-.59,6.41,6.41,0,0,0,2-1.72,5.66,5.66,0,0,0,1.39-3.41,5,5,0,0,0-1.32-3.4l-1.28,1.58a2.92,2.92,0,0,1,.74,2,3.55,3.55,0,0,1-.87,2,4.26,4.26,0,0,1-1.37,1.16,3.45,3.45,0,0,1-1.48.39,3.51,3.51,0,0,1-1.45-.27,4.94,4.94,0,0,1-1.34-.83l5.87-7.28a10,10,0,0,0-2-1.34,7,7,0,0,0-2.38-.74,5.47,5.47,0,0,0-2.47.27,5.13,5.13,0,0,0-2.27,1.72,5.69,5.69,0,0,0-1.1,2.14,5.56,5.56,0,0,0-.12,2.3,6.26,6.26,0,0,0,.83,2.24m1-4.15a3.6,3.6,0,0,1,.69-1.29,3.49,3.49,0,0,1,3.73-1.2,4.28,4.28,0,0,1,1.28.61l-4.51,5.58a4.22,4.22,0,0,1-.86-1.1,3.62,3.62,0,0,1-.42-1.27,3.33,3.33,0,0,1,.1-1.33"/><path class="cls-2" d="M184.61,197.67a2.73,2.73,0,0,0,1.78.86,4.06,4.06,0,0,0,1.8-.37,10.19,10.19,0,0,0,1.78-1q0.88-.63,1.69-1.11a5.11,5.11,0,0,1,1.52-.64,1.37,1.37,0,0,1,1.29.4,1.52,1.52,0,0,1,.49.87,1.85,1.85,0,0,1-.1.93,3.71,3.71,0,0,1-.48.89,7.5,7.5,0,0,1-.64.79,6.25,6.25,0,0,1-.93.8,3.38,3.38,0,0,1-1,.5,2.18,2.18,0,0,1-1.07,0,2.33,2.33,0,0,1-1-.56l-1.41,1.49a4.53,4.53,0,0,0,1.76,1,3.61,3.61,0,0,0,1.74.06,4.82,4.82,0,0,0,1.66-.72,8.74,8.74,0,0,0,1.52-1.29,10.25,10.25,0,0,0,1.18-1.5,5.21,5.21,0,0,0,.72-1.69,3.66,3.66,0,0,0,0-1.72,3.48,3.48,0,0,0-1-1.64,3,3,0,0,0-1.33-.78,3.14,3.14,0,0,0-1.36,0,4.9,4.9,0,0,0-1.36.5,15.63,15.63,0,0,0-1.34.81l-1.23.83A8.46,8.46,0,0,1,188,196a3,3,0,0,1-1.08.29A1.15,1.15,0,0,1,186,196a1.22,1.22,0,0,1-.4-0.72,1.72,1.72,0,0,1,.08-0.79,3.09,3.09,0,0,1,.41-0.8,6.11,6.11,0,0,1,.59-0.72,4.57,4.57,0,0,1,.77-0.65,3.14,3.14,0,0,1,.88-0.42,2,2,0,0,1,1.87.41l1.41-1.49a4.57,4.57,0,0,0-1.71-1,3.25,3.25,0,0,0-1.63,0,4.56,4.56,0,0,0-1.54.71,10,10,0,0,0-1.48,1.29,6.82,6.82,0,0,0-1,1.34,5,5,0,0,0-.58,1.52,3.43,3.43,0,0,0,0,1.54,3,3,0,0,0,.88,1.42"/><path class="cls-2" d="M197.91,193.67a3.51,3.51,0,0,0,1.49.6,3.3,3.3,0,0,0,1.61-.19,5.59,5.59,0,0,0,1.75-1.12,5,5,0,0,0,1.42-2,4.21,4.21,0,0,0,.11-2.38l0,0,1.32,1.48,1.44-1.29-8.31-9.32-1.53,1.37,4.7,5.26a5.07,5.07,0,0,1,.87,1.32,3.56,3.56,0,0,1,.31,1.39,3.08,3.08,0,0,1-.31,1.38,4.23,4.23,0,0,1-1,1.3,2.34,2.34,0,0,1-3.57-.19l-5.63-6.31-1.53,1.37,5.47,6.13a7.72,7.72,0,0,0,1.38,1.24"/><path class="cls-2" d="M204.48,182.74a10,10,0,0,0,1.92,1.86,5.76,5.76,0,0,0,2.15,1,5.1,5.1,0,0,0,2.29,0,6.4,6.4,0,0,0,2.37-1.17,5.65,5.65,0,0,0,2.19-3,5,5,0,0,0-.45-3.62L213.32,179a2.92,2.92,0,0,1,.22,2.13,3.55,3.55,0,0,1-1.35,1.76,4.23,4.23,0,0,1-1.61.79,3.44,3.44,0,0,1-1.53,0,3.52,3.52,0,0,1-1.34-.62,4.92,4.92,0,0,1-1.09-1.13l7.49-5.6a10,10,0,0,0-1.6-1.79,7,7,0,0,0-2.12-1.31,5.47,5.47,0,0,0-2.46-.34,5.12,5.12,0,0,0-2.63,1.1,5.68,5.68,0,0,0-1.6,1.8A5.53,5.53,0,0,0,203,178a6.22,6.22,0,0,0,.25,2.37,7.52,7.52,0,0,0,1.22,2.35m0.39-4.85a3.31,3.31,0,0,1,.42-1.27,3.58,3.58,0,0,1,1-1.08,3.52,3.52,0,0,1,1.3-.62,3.58,3.58,0,0,1,1.34-.07,3.52,3.52,0,0,1,1.27.45,4.18,4.18,0,0,1,1.09.91l-5.74,4.3a4.29,4.29,0,0,1-.57-1.28,3.63,3.63,0,0,1-.09-1.33"/><rect class="cls-2" x="213.75" y="163.8" width="2.05" height="17.25" transform="translate(-59.48 147.11) rotate(-33.48)"/><path class="cls-2" d="M218.6,172.65a8.18,8.18,0,0,0,1.61,2,5.82,5.82,0,0,0,2,1.21,5.31,5.31,0,0,0,2.34.24,7.16,7.16,0,0,0,4.53-2.61,5.35,5.35,0,0,0,1-2.14,5.82,5.82,0,0,0,0-2.37,8.7,8.7,0,0,0-2.56-4.45,5.86,5.86,0,0,0-2-1.22,5.53,5.53,0,0,0-2.34-.26,7,7,0,0,0-4.53,2.61,5.45,5.45,0,0,0-1,2.16,5.82,5.82,0,0,0,0,2.38,8.31,8.31,0,0,0,1,2.42m1.12-4.69a3.54,3.54,0,0,1,.62-1.42A3.8,3.8,0,0,1,223,165a3.56,3.56,0,0,1,1.54.18,4.36,4.36,0,0,1,1.46.87,6.24,6.24,0,0,1,1.27,1.6,6.17,6.17,0,0,1,.75,1.9,4.22,4.22,0,0,1,0,1.69,3.6,3.6,0,0,1-.63,1.41,3.78,3.78,0,0,1-2.62,1.51,3.61,3.61,0,0,1-1.53-.16,4.24,4.24,0,0,1-1.46-.86,6.9,6.9,0,0,1-2-3.5,4.33,4.33,0,0,1,0-1.7"/><path class="cls-2" d="M236.11,158a5.81,5.81,0,0,1-.44-1.48,4.11,4.11,0,0,1,0-1.49,3.21,3.21,0,0,1,.6-1.31,3,3,0,0,1,1.27-.93,3.73,3.73,0,0,1,1.27-.29,3.07,3.07,0,0,1,1.21.18,3.13,3.13,0,0,1,1,.63,3,3,0,0,1,.73,1.07,3.86,3.86,0,0,1,.06,3A8.42,8.42,0,0,1,241,159q-0.54.84-1.29,1.88-0.62.83-1.15,1.7a8.15,8.15,0,0,0-.83,1.86,7,7,0,0,0-.28,2.14,9,9,0,0,0,.49,2.61l10.34-4.27-0.69-1.67-8.13,3.36a3.24,3.24,0,0,1,0-1.54,6.6,6.6,0,0,1,.61-1.49,12.73,12.73,0,0,1,1-1.49l1.11-1.49q0.54-.77,1-1.57a7.87,7.87,0,0,0,.75-1.66,5.74,5.74,0,0,0,.26-1.8,5.34,5.34,0,0,0-.44-2,5,5,0,0,0-1.2-1.8,4.39,4.39,0,0,0-1.65-1,5.1,5.1,0,0,0-1.93-.22,6.57,6.57,0,0,0-2.06.5,6,6,0,0,0-2.06,1.35,4.92,4.92,0,0,0-1.16,1.85,5.12,5.12,0,0,0-.24,2.18,6.91,6.91,0,0,0,.68,2.33Z"/><path class="cls-2" d="M246.81,150a1.18,1.18,0,0,1,.23-1.2,3,3,0,0,1,1.25-.72,6,6,0,0,1,.65-0.18,2,2,0,0,1,.62,0,1,1,0,0,1,.51.2,1.13,1.13,0,0,1,.35.56,0.64,0.64,0,0,1,0,.42,0.91,0.91,0,0,1-.32.38,4.19,4.19,0,0,1-.75.44l-1.27.6a5.89,5.89,0,0,0-.94.51,3.17,3.17,0,0,0-.75.69,2.2,2.2,0,0,0-.41.89,2.09,2.09,0,0,0,.09,1.09,2,2,0,0,0,.52.85,2,2,0,0,0,.8.45,2.65,2.65,0,0,0,1,.09,4.68,4.68,0,0,0,1.07-.23,3.69,3.69,0,0,0,2.34-1.94,1.08,1.08,0,0,0,1.52.67,2.85,2.85,0,0,0,.51-0.22,2.68,2.68,0,0,0,.42-0.29l-0.33-1a0.83,0.83,0,0,1-.24.13l-0.25.08a0.26,0.26,0,0,1-.31-0.08,1.71,1.71,0,0,1-.26-0.55L251.64,148A1.82,1.82,0,0,0,251,147a2,2,0,0,0-.9-0.38,3.25,3.25,0,0,0-1.05,0,7.43,7.43,0,0,0-1.08.27,6.47,6.47,0,0,0-1.21.54,3.26,3.26,0,0,0-.93.78,2.55,2.55,0,0,0-.5,1,2.33,2.33,0,0,0,.06,1.23Zm4.39,1.2a1.4,1.4,0,0,1,.05.58,1.49,1.49,0,0,1-.23.65,2.29,2.29,0,0,1-.6.62,3.65,3.65,0,0,1-1,.51,2.81,2.81,0,0,1-1.06.16,0.78,0.78,0,0,1-.68-0.63,0.93,0.93,0,0,1,.15-1,3.56,3.56,0,0,1,.93-0.7l1.22-.63a2.74,2.74,0,0,0,.9-0.65Z"/><path class="cls-2" d="M272.57,158.33a5.62,5.62,0,0,0,2.14-.85,5,5,0,0,0,1.4-1.4,4.57,4.57,0,0,0,.68-1.74,5.18,5.18,0,0,0,0-1.87,4.35,4.35,0,0,0-1.35-2.49,4,4,0,0,0-2.67-1v0a3.91,3.91,0,0,0,1.58-1.82,4.21,4.21,0,0,0,.2-2.46,3.87,3.87,0,0,0-1-2,4.5,4.5,0,0,0-1.68-1.1,3,3,0,0,0-1-.18,10.06,10.06,0,0,0-1.18,0c-0.42,0-.84.1-1.26,0.17l-1.17.22L261.09,143l3.29,16.93Zm0.37-7.52a2.44,2.44,0,0,1,1,.71,2.82,2.82,0,0,1,.58,1.32,3,3,0,0,1-.41,2.39,3.29,3.29,0,0,1-2.18,1.26l-5.64,1.1-1.14-5.86,5.15-1a7.28,7.28,0,0,1,1.4-.14,3.53,3.53,0,0,1,1.26.22m-4.72-7.24a11.21,11.21,0,0,1,1.4-.19,3.12,3.12,0,0,1,1.22.14,2.06,2.06,0,0,1,.94.65,3.06,3.06,0,0,1,.56,1.37,2.49,2.49,0,0,1-.45,2.19,4.52,4.52,0,0,1-2.63,1.21l-4.51.88-1-5.39Z"/><path class="cls-2" d="M278.72,153.73a5.63,5.63,0,0,0,1.3,1.9,4.91,4.91,0,0,0,2,1.12,6.53,6.53,0,0,0,2.56.22,5.42,5.42,0,0,0,3.64-1.61,5.75,5.75,0,0,0,1.38-3.72l-2.09.2a3.61,3.61,0,0,1-.83,2.34,3.36,3.36,0,0,1-2.29,1,3.4,3.4,0,0,1-1.7-.23,3.25,3.25,0,0,1-1.23-.91,4.53,4.53,0,0,1-.78-1.39,6.86,6.86,0,0,1-.37-1.66,8.57,8.57,0,0,1,0-1.83,4.56,4.56,0,0,1,.49-1.61,3.32,3.32,0,0,1,1.09-1.2,3.83,3.83,0,0,1,1.81-.59A2.88,2.88,0,0,1,287,148l2.12-.2a4.92,4.92,0,0,0-.76-1.86,4.32,4.32,0,0,0-1.29-1.22,4.88,4.88,0,0,0-1.71-.62,7.55,7.55,0,0,0-2-.06,6,6,0,0,0-2.52.76,5.14,5.14,0,0,0-1.7,1.59,6,6,0,0,0-.89,2.22,9.12,9.12,0,0,0-.11,2.64,8.38,8.38,0,0,0,.62,2.53"/><path class="cls-2" d="M293.44,156.13l-0.12-7.05a5.07,5.07,0,0,1,.2-1.56,3.54,3.54,0,0,1,.67-1.26,3.05,3.05,0,0,1,1.13-.84,4.19,4.19,0,0,1,1.63-.32,2.34,2.34,0,0,1,2.58,2.47l0.14,8.46,2.05,0-0.13-8.21a7.77,7.77,0,0,0-.24-1.85,3.52,3.52,0,0,0-.74-1.42,3.38,3.38,0,0,0-1.34-.92,5.41,5.41,0,0,0-2.06-.31,4.33,4.33,0,0,0-4,2.34h0l0-2-1.93,0,0.2,12.49Z"/><polygon class="cls-2" points="318.46 139.65 316.71 139.48 307.83 156.73 309.56 156.9 318.46 139.65"/></svg>